<?xml version="1.0" standalone="no"?>
<!DOCTYPE svg PUBLIC "-//W3C//DTD SVG 1.1//EN" "http://www.w3.org/Graphics/SVG/1.1/DTD/svg11.dtd" >
<svg xmlns="http://www.w3.org/2000/svg">
<metadata>Generated by IcoMoon</metadata>
<defs>
<font id="bbp-icons" horiz-adv-x="1024">
<font-face units-per-em="1024" ascent="960" descent="-64" />
<missing-glyph horiz-adv-x="1024" />
<glyph unicode="&#x20;" horiz-adv-x="512" d="" />
<glyph unicode="&#xe600;" glyph-name="facebook" d="M512 960c-282.726 0-512-229.326-512-512 0-282.778 229.274-512 512-512s512 229.222 512 512c0 282.674-229.274 512-512 512zM647.526 450.15h-88.626c0-141.67 0-316.16 0-316.16h-131.43c0 0 0 172.75 0 316.16h-62.464v111.616h62.464v72.346c0 51.762 24.576 132.556 132.608 132.556l97.28-0.358v-108.39c0 0-59.188 0-70.656 0-11.52 0-27.852-5.786-27.852-30.362v-65.74h100.198l-11.52-111.668z" />
<glyph unicode="&#xe601;" glyph-name="twitter" d="M512 960c-282.726 0-512-229.326-512-512 0-282.778 229.274-512 512-512s512 229.222 512 512c0 282.674-229.222 512-512 512zM769.946 551.22c0.256-5.53 0.358-11.11 0.358-16.692 0-170.548-129.792-367.154-367.104-367.154-72.858 0-140.698 21.35-197.786 57.958 10.086-1.178 20.326-1.792 30.772-1.792 60.466 0 116.122 20.634 160.256 55.246-56.474 1.076-104.090 38.35-120.524 89.6 7.834-1.486 15.924-2.304 24.27-2.304 11.776 0 23.194 1.586 33.998 4.558-59.034 11.826-103.526 64-103.526 126.514 0 0.562 0 1.074 0 1.638 17.356-9.678 37.274-15.462 58.47-16.178-34.662 23.194-57.446 62.618-57.446 107.418 0 23.654 6.4 45.824 17.46 64.87 63.642-78.080 158.72-129.434 265.984-134.81-2.202 9.472-3.328 19.302-3.328 29.39 0 71.27 57.754 129.024 129.076 129.024 37.12 0 70.656-15.668 94.158-40.704 29.39 5.786 56.986 16.538 81.972 31.284-9.626-30.158-30.106-55.45-56.73-71.374 26.112 3.124 50.996 10.086 74.138 20.326-17.356-25.906-39.27-48.64-64.462-66.816z" />
<glyph unicode="&#xe602;" glyph-name="flickr" d="M512 960c-282.726 0-512-229.326-512-512 0-282.778 229.274-512 512-512s512 229.222 512 512c0 282.674-229.274 512-512 512zM315.7 289.382c-89.038 0-161.126 72.090-161.126 161.074 0 89.088 72.14 161.126 161.126 161.126s161.126-72.090 161.126-161.126c-0.050-88.986-72.142-161.074-161.126-161.074zM719.974 289.382c-89.038 0-161.126 72.090-161.126 161.074 0 89.088 72.14 161.126 161.126 161.126s161.126-72.090 161.126-161.126c0.052-88.986-72.090-161.074-161.126-161.074z" />
<glyph unicode="&#xe603;" glyph-name="instagram" d="M723.354 560.026v94.362l-94.31-0.358 0.308-94.31zM509.49 342.222c54.016 0 97.996 43.93 97.996 97.946 0 21.35-6.912 41.062-18.534 57.14-17.818 24.626-46.746 40.858-79.412 40.858-32.716 0-61.594-16.178-79.412-40.858-11.622-16.076-18.534-35.788-18.534-57.14-0.102-54.016 43.878-97.946 97.894-97.946zM512 960c-282.726 0-512-229.222-512-512s229.274-512 512-512 512 229.222 512 512-229.274 512-512 512zM787.814 497.306v-227.84c0-59.342-48.282-107.572-107.572-107.572h-341.504c-59.29 0-107.57 48.23-107.57 107.572v341.452c0 59.342 48.23 107.572 107.57 107.572h341.504c59.29 0 107.572-48.23 107.572-107.572v-113.612zM661.658 440.166c0-83.918-68.25-152.218-152.218-152.218s-152.218 68.302-152.218 152.218c0 20.224 4.046 39.476 11.214 57.14h-83.046v-227.84c0-29.44 23.91-53.35 53.35-53.35h341.504c29.44 0 53.35 23.91 53.35 53.35v227.84h-83.15c7.168-17.664 11.212-36.916 11.212-57.14z" />
<glyph unicode="&#xe604;" glyph-name="arrow-left" d="M512 908.8c254.106 0 460.8-206.694 460.8-460.8s-206.694-460.8-460.8-460.8-460.8 206.694-460.8 460.8 206.694 460.8 460.8 460.8zM512 960c-282.778 0-512-229.274-512-512s229.222-512 512-512 512 229.222 512 512-229.222 512-512 512v0zM481.946 196.454c-6.554 0-13.106 2.51-18.126 7.476l-244.020 244.070 244.070 244.070c9.984 9.984 26.214 9.984 36.198 0s9.984-26.214 0-36.198l-207.872-207.872 207.872-207.872c9.984-9.984 9.984-26.214 0-36.198-5.018-4.966-11.572-7.476-18.126-7.476zM768 422.4h-512c-14.132 0-25.6 11.47-25.6 25.6s11.468 25.6 25.6 25.6h512c14.13 0 25.6-11.468 25.6-25.6s-11.47-25.6-25.6-25.6z" />
<glyph unicode="&#xe605;" glyph-name="arrow-right" d="M512 908.8c254.106 0 460.8-206.694 460.8-460.8s-206.694-460.8-460.8-460.8-460.8 206.694-460.8 460.8 206.694 460.8 460.8 460.8zM512 960c-282.778 0-512-229.274-512-512s229.222-512 512-512 512 229.222 512 512-229.222 512-512 512v0zM542.054 196.454c-6.554 0-13.106 2.51-18.126 7.476-9.984 9.984-9.984 26.214 0 36.198l207.872 207.872-207.872 207.872c-9.984 9.984-9.984 26.214 0 36.198s26.214 9.984 36.198 0l244.070-244.070-244.070-244.070c-4.966-4.966-11.52-7.476-18.074-7.476zM768 422.4h-512c-14.132 0-25.6 11.47-25.6 25.6s11.468 25.6 25.6 25.6h512c14.13 0 25.6-11.468 25.6-25.6s-11.47-25.6-25.6-25.6z" />
<glyph unicode="&#xe606;" glyph-name="arrow-up" d="M512 908.8c254.054 0 460.8-206.746 460.8-460.8s-206.694-460.8-460.8-460.8-460.8 206.746-460.8 460.8 206.746 460.8 460.8 460.8zM512 960c-282.726 0-512-229.222-512-512s229.222-512 512-512 512 229.222 512 512-229.274 512-512 512v0zM737.946 452.454c-6.554 0-13.106 2.51-18.126 7.476l-207.822 207.872-207.872-207.872c-9.984-9.984-26.214-9.984-36.198 0s-9.984 26.214 0 36.198l244.070 244.070 244.070-244.070c9.984-9.984 9.984-26.214 0-36.198-5.018-4.966-11.572-7.476-18.126-7.476zM512 166.4c-14.13 0-25.6 11.47-25.6 25.6v512c0 14.13 11.468 25.6 25.6 25.6s25.6-11.47 25.6-25.6v-512c0-14.13-11.47-25.6-25.6-25.6z" />
<glyph unicode="&#xe607;" glyph-name="arrow-down" d="M512 908.8c254.054 0 460.8-206.746 460.8-460.8s-206.694-460.8-460.8-460.8-460.8 206.746-460.8 460.8 206.746 460.8 460.8 460.8zM512 960c-282.726 0-512-229.222-512-512s229.222-512 512-512 512 229.222 512 512-229.274 512-512 512v0zM512 155.802l-244.070 244.070c-9.984 9.984-9.984 26.214 0 36.198s26.214 9.984 36.198 0l207.872-207.872 207.872 207.872c9.984 9.984 26.214 9.984 36.198 0s9.984-26.214 0-36.198l-244.070-244.070zM512 166.4c-14.13 0-25.6 11.47-25.6 25.6v512c0 14.13 11.468 25.6 25.6 25.6s25.6-11.47 25.6-25.6v-512c0-14.13-11.47-25.6-25.6-25.6z" />
<glyph unicode="&#xe608;" glyph-name="map-art" d="M274.304 595.822l-56.522-230.746h145.646l-55.88 230.748zM901.542 960h-779.282c-67.546 0-122.258-54.856-122.258-122.424v-779.374c0-67.566 54.71-122.202 122.258-122.202h779.282c67.674 0 122.458 54.638 122.458 122.222v779.356c0 67.566-54.784 122.424-122.46 122.424zM402.688 202.15l-24.63 97.736h-174.902l-24.612-97.754h-73.802l112.384 455.534h146.98l113.062-455.534h-74.478zM691.932 469.45c-38.126-7.534-70.712-17.28-97.754-29.258l-14.648-5.98v-232.064h-72.466v332.488h71.826v-39.898c37.688 24.376 75.356 40.1 113.042 47.214v-72.502zM874.15 194.778c-37.706 0-63.524 8.668-77.458 25.928-13.97 17.28-20.956 49.902-20.956 97.792v154.294h-42.534v61.842h42.534v96.422h71.826v-96.422h91.812v-61.842h-91.812v-146.286c0-27.044 1.976-45 5.98-53.87 3.986-8.87 14.172-13.312 30.592-13.312l54.51 1.976 3.346-57.856c-29.732-5.742-52.352-8.668-67.84-8.668z" />
<glyph unicode="&#xe609;" glyph-name="map-bathroom" d="M914.286 960h-804.572c-60.582 0-109.714-49.134-109.714-109.714v-804.572c0-60.562 49.134-109.714 109.714-109.714h804.572c60.562 0 109.714 49.152 109.714 109.714v804.572c0 60.582-49.152 109.714-109.714 109.714zM793.528 789.888c30.574 0 55.462-24.888 55.462-55.424 0-30.774-24.886-55.496-55.462-55.496s-55.462 24.704-55.462 55.496c0 30.538 24.904 55.424 55.462 55.424zM254.17 789.138c30.646 0 55.534-24.96 55.534-55.716 0-30.5-24.888-55.424-55.534-55.424-30.664 0-55.462 24.924-55.462 55.424 0 30.756 24.776 55.716 55.462 55.716zM382.482 445.476l-42.788 143.634h-24.722l71.752-255.47h-68.39v-199.314c0-33.994-51.108-33.72-51.108 0v200.63h-26.002v-200.246c0-34.394-51.29-34.394-51.29 0v198.93h-68.608l71.040 255.47h-23.606l-42.898-144.038c-10.112-31.398-53.32-18.578-43.502 15.178l47.634 156.6c5.064 17.792 27.648 49.352 66.67 49.352l109.202 0.018c38.858 0 66.652-31.926 72.576-49.352l47.544-156.598c9.526-33.608-33.28-47.598-43.502-14.792zM553.818 107.886h-54.29v683.356h54.29v-683.356zM938.222 424.814c0.22-33.37-43.282-33.37-43.282 0v165.942h-25.894l-0.22-450.084c0-17.152-13.99-31.122-31.178-31.122-17.17 0-30.958 13.97-30.958 31.122v261.084h-26.112v-261.066c0-17.17-13.99-31.14-31.14-31.14-17.206 0-31.178 13.97-31.178 31.14l0.202 450.086h-26.534v-165.944c0-33.006-43.502-33.006-43.502 0v170.624c0 39.846 31.598 72.026 70.822 72.026l147.384-0.218c43.044 0 71.606-35.986 71.606-72.85v-169.6z" />
<glyph unicode="&#xe60a;" glyph-name="map-boatlaunch" d="M901.576 960h-779.246c-67.438 0-122.332-54.802-122.332-122.35v-779.1c0-67.768 54.894-122.55 122.332-122.55h779.246c67.62 0 122.424 54.784 122.424 122.534v779.118c0 67.548-54.802 122.35-122.424 122.35zM510.794 876.8c39.424 0 72.794-26.898 82.102-63.488h-71.186c-8.504 0-15.782-5.082-19.218-12.562l-9.106-19.802c-2.926-6.49-9.69-10.936-17.17-10.936v0.018h-47.122c-2.012 7.096-2.726 14.574-2.726 22.052 0 46.922 37.704 84.718 84.426 84.718zM579.75 795.702v-3.64c0-38.016-30.922-68.774-68.954-68.774-23.26 0-43.868 11.538-56.412 29.33h21.832c14.446 0 26.898 8.504 32.952 20.846l9.308 19.802c0.402 1.426 1.81 2.432 3.254 2.432h58.020zM918.326 248.284c-17.792 0-34.962 4.042-50.25 10.716-15.744 7.278-33.134 11.502-51.528 11.502-18.432 0-36.004-4.206-51.566-11.502-15.27-6.674-32.256-10.716-50.030-10.716-17.902 0-34.778 4.042-50.25 10.716-15.562 7.278-33.152 11.502-51.566 11.502-18.176 0-35.674-4.206-51.548-11.502-15.048-6.674-32.038-10.716-49.938-10.716-17.774 0-34.98 4.042-50.14 10.716-15.56 7.278-33.152 11.502-51.566 11.502-18.286 0-35.894-4.206-51.548-11.502-5.358-2.432-11.136-3.858-16.988-5.688l-85.742-85.742c10.13-19.182 7.186-43.466-8.998-59.648l-71.296-71.35c-19.914-19.822-51.95-19.822-72.082 0-19.712 20.004-19.712 52.15 0 71.972l71.478 71.388c17.17 17.17 43.466 19.4 63.194 7.076l62.372 62.098c-14.866 1.062-29.13 4.224-42.058 9.928-15.562 7.296-32.95 11.502-51.456 11.502-18.304 0-35.896-4.224-51.566-11.502-15.27-6.674-32.238-10.716-50.048-10.716v75.026c17.792 0 34.778 4.042 50.048 10.716 15.67 7.278 33.262 11.538 51.566 11.538 18.486 0 35.878-4.26 51.456-11.538 15.36-6.674 32.33-10.716 50.14-10.716 17.572 0 34.56 4.042 49.938 10.716 15.654 7.278 33.262 11.538 51.546 11.538 18.414 0 35.986-4.26 51.566-11.538 15.158-6.674 32.346-10.716 50.14-10.716 17.902 0 34.89 4.042 49.938 10.716 15.872 7.278 33.37 11.538 51.548 11.538 18.414 0 36.004-4.26 51.566-11.538 15.47-6.674 32.346-10.716 50.25-10.716 17.792 0 34.76 4.042 50.030 10.716 15.578 7.278 33.134 11.538 51.566 11.538 18.394 0 35.784-4.242 51.528-11.576 15.288-6.674 32.456-10.716 50.25-10.716v-75.026zM715.356 585.234c-6.566-17.39-25.874-26.294-43.264-20.004l-13.86 5.248-102.106-102.326c0 0 334.062-0.384 345.162 0 40.65 1.426 25.162-23.462 6.472-34.98-22.456-13.75-32.256-20.242-58.15-31.578-14.464-9.674-29.422-8.686-33.078-8.686-21.432 0-43.282-4.864-62.794-13.97-12.142-5.486-25.49-8.284-38.822-8.284-13.148 0-26.788 2.798-39.314 8.504-19.602 9.106-40.65 13.75-62.5 13.75-21.212 0-43.062-4.864-62.682-13.97-12.25-5.486-25.4-8.284-38.838-8.284-13.348 0-26.898 2.798-39.224 8.504-19.62 9.106-40.85 13.75-62.5 13.75-21.414 0-43.062-4.864-62.866-13.97-12.142-5.486-25.272-8.284-38.62-8.284s-26.514 2.798-39.24 8.504c-19.31 8.886-40.832 13.75-62.372 13.75-21.45 0-43.192-4.864-62.794-13.97-11.942-5.248-25.472-8.284-38.618-8.284v97.462h241.024c0.202 1.81 0.402 3.64 1.006 5.85l54.2 181.614c11.63 38.4 52.168 60.25 90.586 48.53 5.45-1.426 10.312-3.638 14.958-6.272l176.346-65.336 88.832 88.778c-12.526 19.62-10.184 45.914 7.004 63.086l71.37 71.406c19.822 20.024 52.188 20.024 72.010 0 20.024-19.822 20.024-51.986 0-72.010l-71.37-71.37c-16.202-16.182-40.558-18.798-59.63-8.63l-83.914-83.914c8.504-8.942 12.032-22.254 7.59-34.616zM497.444 468.114h21.834l112.038 112.218-90.184 33.17z" />
<glyph unicode="&#xe60b;" glyph-name="map-bridge" d="M914.286 960h-804.572c-60.582 0-109.714-49.134-109.714-109.714v-804.572c0-60.562 49.134-109.714 109.714-109.714h804.572c60.562 0 109.714 49.152 109.714 109.714v804.572c0 60.582-49.152 109.714-109.714 109.714zM548.424 876.216c29.422-2.432 51.254-27.886 48.986-57.216-2.376-29.33-27.866-51.182-57.288-48.75-29.258 2.25-51.108 27.922-48.622 57.032 2.176 29.33 27.848 51.146 56.924 48.932zM183.296 141h-84.26v46.72h84.26v-46.72zM207.306 187.722h84.188v-46.72h-84.188v46.72zM315.282 2.89h-69.156v97.682h69.156v-97.682zM399.67 141h-84.188v46.72h84.188v-46.72zM507.832 141h-84.168v46.72h84.168v-46.72zM616.264 141h-84.26v46.72h84.26v-46.72zM597.448 263.424l-24.010 125.97-76.71 83.894-17.702-81.682c-0.604-3.858-5.704-11.922-7.132-15.178l-73.6-123.922c-7.26-11.318-19.602-18.616-33.554-17.39-19.986 1.426-34.778 18.778-33.134 38.6 0.402 5.688 2.778 11.538 4.864 15.578l68.334 114.67 57.034 252.562-37.266-30.134-19.766-89.966c-2.706-11.538-13.184-21.028-25.472-20.040-13.348 1.042-23.112 12.544-22.052 25.892 0 1.006 0.218 2.030 0.402 3.218l23.406 104.96c1.408 4.424 3.786 8.502 7.314 11.538l106.698 86.454c10.46 7.278 23.204 12.106 37.412 10.936 18.194-1.426 33.116-12.746 42.222-26.496l53.65-106.35 73.198-50.36c6.216-4.864 10.168-12.544 9.308-21.028-1.042-13.146-12.506-23.040-25.6-21.814-4.078 0.182-7.386 1.83-11.044 3.438l-79.818 55.002c-2.486 2.030-4.424 4.462-6.072 7.076l-20.024 39.864-24.082-105.966 94.298-111.432c2.176-3.438 3.64-7.462 4.442-11.502l25.51-134.474c-0.22-3.034 0.182-4.864 0-7.26-1.462-20.058-18.852-34.596-38.638-33.152-16.512 1.37-28.6 13.514-32.422 28.49zM724.442 141h-84.26v46.72h84.26v-46.72zM795.758 2.89h-69.138v97.682h69.138v-97.682zM832.622 141h-84.26v46.72h84.26v-46.72zM943.36 141h-84.242v46.72h84.242v-46.72z" />
<glyph unicode="&#xe60c;" glyph-name="map-building" d="M499.382 361.126h43.502c5.688 0 10.752 2.25 15.030 6.62 4.37 4.278 6.62 9.362 6.62 15.104v43.428h0.018c0 5.706-2.25 10.642-6.638 15.014-4.278 4.442-9.344 6.712-15.030 6.712h-43.502c-5.688 0-10.606-2.268-14.994-6.674-4.426-4.39-6.674-9.344-6.674-15.030v-43.428c0-5.742 2.25-10.826 6.674-15.104 4.39-4.39 9.326-6.638 14.994-6.638zM369.080 621.678h43.464c5.688 0 10.788 2.266 15.214 6.674 4.314 4.37 6.49 9.308 6.49 15.048v43.428c0 5.704-2.176 10.77-6.49 15.158-4.426 4.426-9.526 6.564-15.214 6.564h-43.466c-5.614 0-10.606-2.138-15.032-6.564-4.426-4.39-6.564-9.454-6.564-15.158v-43.428c0-5.742 2.14-10.678 6.564-15.048 4.426-4.408 9.436-6.674 15.032-6.674zM434.25 426.278c0 5.706-2.176 10.642-6.49 15.014-4.442 4.442-9.546 6.712-15.214 6.712h-43.464c-5.614 0-10.606-2.268-15.032-6.674-4.426-4.39-6.564-9.344-6.564-15.030v-43.428c0-5.742 2.14-10.826 6.564-15.104 4.426-4.37 9.436-6.62 15.032-6.62h43.466c5.688 0 10.788 2.25 15.214 6.62 4.314 4.278 6.49 9.362 6.49 15.104v43.41zM369.080 491.464h43.464c5.688 0 10.788 2.12 15.214 6.528 4.314 4.39 6.49 9.472 6.49 15.178v43.318c0 5.722-2.176 10.788-6.49 15.158-4.426 4.442-9.526 6.546-15.214 6.546h-43.466c-5.614 0-10.606-2.102-15.032-6.546-4.426-4.37-6.564-9.436-6.564-15.158v-43.318c0-5.706 2.14-10.79 6.564-15.178 4.426-4.406 9.436-6.528 15.032-6.528zM499.402 621.678h43.484c5.706 0 10.752 2.266 15.030 6.674 4.39 4.37 6.638 9.308 6.638 15.048v43.428c0 5.704-2.25 10.77-6.638 15.158-4.278 4.426-9.362 6.564-15.030 6.564h-43.484c-5.688 0-10.606-2.138-14.994-6.564-4.426-4.39-6.674-9.454-6.674-15.158v-43.428c0-5.742 2.25-10.678 6.674-15.048 4.39-4.408 9.326-6.674 14.994-6.674zM499.382 491.464h43.502c5.688 0 10.752 2.12 15.030 6.528 4.37 4.39 6.62 9.472 6.62 15.178v43.318h0.018c0 5.722-2.25 10.788-6.638 15.158-4.278 4.442-9.344 6.546-15.030 6.546h-43.502c-5.688 0-10.606-2.102-14.994-6.546-4.426-4.37-6.674-9.436-6.674-15.158v-43.318c0-5.706 2.25-10.79 6.674-15.178 4.39-4.406 9.326-6.528 14.994-6.528zM673.206 708.552h-43.466c-5.688 0-10.788-2.14-15.14-6.564-4.37-4.39-6.546-9.454-6.546-15.16v-43.428c0-5.742 2.176-10.678 6.546-15.048 4.352-4.408 9.49-6.674 15.14-6.674h43.466c5.632 0 10.642 2.266 15.030 6.674 4.424 4.37 6.566 9.308 6.566 15.048v43.428c0 5.704-2.14 10.77-6.566 15.158-4.39 4.426-9.418 6.564-15.030 6.564zM673.206 578.194h-43.466c-5.688 0-10.788-2.102-15.14-6.546-4.37-4.37-6.546-9.436-6.546-15.158v-43.318c0-5.706 2.176-10.79 6.546-15.178 4.352-4.406 9.49-6.528 15.14-6.528h43.466c5.632 0 10.642 2.12 15.030 6.528 4.424 4.39 6.566 9.472 6.566 15.178v43.318c0 5.722-2.14 10.788-6.566 15.158-4.39 4.442-9.418 6.546-15.030 6.546zM586.278 274.212h-130.286c-5.778 0-10.678-2.14-15.068-6.528-4.426-4.424-6.674-9.472-6.674-15.178v-86.746c0-5.722 2.25-10.788 6.674-15.178 4.39-4.39 9.288-6.528 15.068-6.528h130.286c5.76 0 10.678 2.14 15.068 6.528 4.408 4.39 6.656 9.454 6.656 15.178v86.746c0 5.706-2.25 10.752-6.656 15.178-4.39 4.39-9.27 6.528-15.068 6.528zM914.286 960h-804.572c-60.582 0-109.714-49.134-109.714-109.714v-804.572c0-60.562 49.134-109.714 109.714-109.714h804.572c60.562 0 109.714 49.152 109.714 109.714v804.572c0 60.582-49.152 109.714-109.714 109.714zM861.934 107.1c-4.26-4.39-9.362-6.528-15.086-6.528h-651.41c-5.706 0-10.642 2.14-15.032 6.528s-6.694 9.472-6.694 15.178c0 5.722 2.286 10.678 6.674 15.030 4.39 4.408 9.326 6.692 15.032 6.692h21.724c12.472 0 22.784 4.188 30.994 12.69 8.356 8.65 12.47 18.816 12.47 30.738v564.552c0 11.886 4.188 22.090 12.818 30.61 8.502 8.52 18.688 12.836 30.61 12.836h434.214c12.472 0 22.746-4.316 31.104-12.836 8.21-8.52 12.326-18.706 12.326-30.61v-564.534c0-12.49 4.316-22.746 12.856-31.104 8.504-8.192 18.744-12.326 30.61-12.326h21.722c5.706 0 10.826-2.286 15.068-6.692 4.352-4.352 6.638-9.326 6.638-15.030s-2.286-10.788-6.638-15.196zM673.206 448h-43.466c-5.706 0-10.788-2.268-15.14-6.674-4.39-4.39-6.566-9.344-6.566-15.030v-43.428c0-5.742 2.176-10.826 6.566-15.104 4.352-4.37 9.472-6.62 15.14-6.62h43.466c5.614 0 10.642 2.25 15.030 6.62 4.408 4.278 6.546 9.362 6.546 15.104v43.428h0.018c0 5.706-2.14 10.642-6.566 15.014-4.39 4.424-9.418 6.692-15.030 6.692z" />
<glyph unicode="&#xe60d;" glyph-name="map-cemetery" d="M914.286 960h-804.572c-60.582 0-109.714-49.134-109.714-109.714v-804.572c0-60.562 49.134-109.714 109.714-109.714h804.572c60.562 0 109.714 49.152 109.714 109.714v804.572c0 60.582-49.152 109.714-109.714 109.714zM804.572 138.514c0-10.808-8.85-19.658-19.658-19.658h-545.828c-10.806 0-19.658 8.85-19.658 19.658v70.4c0 10.808 8.85 19.658 19.658 19.658h33.83c10.808 0 19.656 8.85 19.656 19.658v330.24c0 10.808 0 25.764 0 33.226 0 0 0 0 0 7.076 0 114.084 105.288 127.89 219.428 127.89 114.102 0 219.428-13.806 219.428-127.89 0-7.076 0-7.076 0-7.076 0-7.462 0-22.4 0-33.226v-330.24c0-10.808 8.85-19.658 19.658-19.658h33.828c10.808 0 19.658-8.85 19.658-19.658v-70.4z" />
<glyph unicode="&#xe60e;" glyph-name="map-discgolf" d="M548.572 243.584c3.292 2.798 6.49 5.888 9.6 9.49 69.414 80.384 64.238 315.868 58.716 414.354h-68.314v-423.846zM256 192h73.144v-73.144h-73.144v73.144zM365.714 192h109.714v-73.144h-109.714v73.144zM901.65 960.658h-779.264c-67.474 0-122.386-54.822-122.386-122.35v-779.282c0-67.528 54.912-122.35 122.386-122.35h353.042v145.61h-256v146.286h173.276c-12.070 8.74-23.57 18.778-34.322 30.28-100.442 107.392-117.192 315.576-119.498 408.576h-19.456v109.714h585.144v-109.714h-26.918c-3.768-102.638-26.972-345.856-159.488-438.856h186.404v-146.286h-256v-145.61l353.078-0.018c67.62 0 122.35 54.822 122.35 122.332v779.318c0 67.528-54.73 122.35-122.35 122.35zM694.856 192h73.144v-73.144h-73.144v73.144zM275.676 667.428c2.542-88.96 18.706-286.536 109.44-383.544 10.038-10.752 20.7-19.694 31.872-27.264-56.338 105.070-55.9 316.27-52.48 410.808h-88.832zM740.864 667.428h-87.24c5.192-92.216 9.308-294.418-44.38-402.14 106.678 87.13 127.654 306.634 131.62 402.14zM548.572 192h109.714v-73.144h-109.714v73.144zM465.080 250.15c3.346-3.802 6.822-6.966 10.35-9.746v427.026h-74.222c-3.548-100.042-4.39-339.768 63.872-417.28z" />
<glyph unicode="&#xe60f;" glyph-name="map-fitness" d="M901.614 960h-779.1c-67.674 0-122.514-54.674-122.514-122.294v-779.356c0-67.528 54.838-122.35 122.514-122.35h779.082c67.474 0 122.404 54.822 122.404 122.35v779.356c0 67.62-54.93 122.294-122.386 122.294zM702.72 837.048c33.976 0 61.496-27.576 61.496-61.33 0-33.956-27.52-61.532-61.496-61.532-33.81 0-61.422 27.558-61.422 61.532-0.018 33.754 27.61 61.33 61.422 61.33zM324.442 617.71c33.882 0 61.202-27.336 61.202-61.33 0-33.736-27.32-61.348-61.202-61.348-33.792 0-61.404 27.612-61.404 61.348 0 34.012 27.594 61.33 61.404 61.33zM520.722 260.736c20.626 0 37.338-16.586 37.338-37.12 0-10.716-4.078-20.206-11.428-27.208l-126.264-126.134c-11.046-16.494-33.080-21.65-50.488-11.648-18.304 10.642-24.284 33.792-14.062 52.004l72.32 71.936h-206.866l-1.518 0.238 72.026-71.954c10.514-18.212 4.442-41.4-13.86-52.004-17.408-10.038-39.278-4.846-50.486 11.648l-126.264 126.134c-7.278 6.966-11.32 16.494-11.32 27.208 0 20.534 16.584 37.102 37.23 37.102h112.092v133.65l-99.858-99.932c-11.85-12.582-31.854-12.966-44.416-1.042-12.544 11.942-12.946 31.762-1.024 44.326l128.896 128.878c9.106 9.49 21.87 15.068 36.022 15.068h128.678c14.154 0 26.898-5.56 36.206-15.068l128.712-129.134c11.922-12.544 11.448-32.366-1.006-44.288-12.582-11.958-32.384-11.538-44.416 1.006l-98.030 98.56v-132.206h111.78zM945.702 809.856l-159.616-159.818 0.202-529.61c0-19.328-15.506-34.616-34.414-34.616-19.018 0-34.596 15.288-34.596 34.616l-0.22 287.214h-28.032v-287.194c0-19.346-15.25-34.634-34.596-34.634-18.926 0-34.304 15.288-34.304 34.634v529.61l-159.634 159.818c-11.94 12.582-11.336 32.512 1.206 44.36 12.562 12.142 32.294 11.502 44.324-1.042l152.686-152.686h89.71l151.644 152.668c12.032 12.544 31.872 13.184 44.434 1.042 12.544-11.866 13.148-31.78 1.206-44.36z" />
<glyph unicode="&#xe610;" glyph-name="map-future" d="M901.542 960h-779.282c-67.546 0-122.258-54.856-122.258-122.424v-779.374c0-67.566 54.71-122.202 122.258-122.202h779.282c67.674 0 122.458 54.638 122.458 122.222v779.356c0 67.566-54.784 122.424-122.46 122.424zM445.786 689.462c7.974 22.218 13.348 37.176 16.42 44.892 2.030 7.112 8.064 12.506 18.066 16.384 9.856 3.748 20.498 5.704 31.782 5.704 11.174 0 21.76-1.956 31.616-5.704 10.002-3.896 16.038-9.288 18.066-16.384 10.15-27.722 21.888-60.032 35.218-97.244-5.048-9.288-15.726-16.714-31.798-22.216-16.128-5.65-33.81-8.502-53.102-8.502-19.418 0-37.138 2.852-53.248 8.502-16.056 5.504-26.734 12.928-31.798 22.216 4.68 12.708 10.824 30.17 18.778 52.352zM377.326 496.604c8.686 24.76 14.794 42.258 18.25 52.388 4.644-12.744 18.066-23.278 40.248-31.818 22.29-8.356 47.58-12.506 76.252-12.506 28.544 0 53.816 4.152 76.106 12.506 22.182 8.538 35.602 19.072 40.246 31.818 2.47-7.112 8.394-23.534 17.572-49.352 9.070-25.746 16.038-45.294 20.682-58.534-2.030-18.47-18.030-33.682-47.89-46.044-29.86-12.106-65.39-18.36-106.716-18.36-41.472 0-77 6.254-106.862 18.36-29.86 12.36-45.896 27.576-47.89 46.044 4.644 12.288 11.282 30.72 20.004 55.498zM816.64 282.642l-242.67-129.354c-16.822-9.254-37.432-13.75-61.898-13.75-24.612 0-45.222 4.498-62.044 13.75l-242.67 129.354c-16.824 9.178-25.070 19.566-24.466 31.36 0.384 11.684 9.856 21.394 28.216 29.11l128.714 51.29-14.646-41.254c0-21.504 18.394-40.010 55.224-55.606 36.68-15.506 80.494-23.406 131.676-23.406 51 0 94.866 7.936 131.528 23.406 36.826 15.616 55.386 34.102 55.936 55.606l-15.36 41.254 128.712-51.29c18.36-7.716 27.812-17.426 28.216-29.11 0.602-11.794-7.644-22.182-24.466-31.36z" />
<glyph unicode="&#xe611;" glyph-name="map-handicap" d="M901.688 960h-779.374c-67.528 0-122.314-54.746-122.314-122.35v-778.898c0-67.858 54.784-122.752 122.314-122.752h779.374c67.528 0 122.312 54.894 122.312 122.752v778.898c0 67.602-54.784 122.35-122.312 122.35zM430.318 848.182c37.998 0 68.534-30.61 68.534-68.644 0-37.614-30.536-68.498-68.534-68.498-37.814 0-68.608 30.884-68.608 68.498 0 38.034 30.794 68.644 68.608 68.644zM474.386 68.48c-142.354 0-257.608 115.474-257.608 257.846 0 92.086 48.932 172.16 121.71 217.618l3.64-63.744c-43.464-37.394-71.424-92.434-71.424-153.874 0-112.712 91.264-203.812 203.686-203.812 97.864 0 178.98 69.576 198.362 161.664l36.206-62.812c-40.246-89.802-129.81-152.886-234.568-152.886zM818.706 187.1c-18.962-11.428-44.014-4.15-54.966 13.64l-90.808 157.422h-222.226c-36.168-0.22-66.706 25.894-69.742 62.172l-11.922 208.182c-1.83 36.352 25.892 67.932 62.5 69.924 36.39 2.086 67.31-26.24 69.742-62.28l4.426-58.788h128.218c17.39-0.604 30.922-13.934 30.922-31.104 0-17.318-13.934-30.28-30.922-31.396h-124.562l1.646-51.75h171.464c13.13-0.42 25.874-7.278 33.152-19.528l116.864-201.71c10.716-19.876 5.082-43.448-13.788-54.784z" />
<glyph unicode="&#xe612;" glyph-name="map-landmark" d="M901.504 960h-779.282c-67.546 0-122.222-54.856-122.222-122.424v-779.374c0-67.566 54.674-122.202 122.222-122.202h779.282c67.712 0 122.496 54.638 122.496 122.222v779.356c0 67.566-54.784 122.424-122.496 122.424zM846.298 535.114l-185.070-140.326c-5.906-4.462-8.978-13.934-6.84-20.992l67.274-222.28c2.14-7.076-1.078-9.434-7.15-5.192l-190.664 132.644c-6.072 4.188-16 4.188-22.088 0l-190.646-132.682c-6.072-4.206-9.288-1.902-7.15 5.192l67.254 222.298c2.14 7.076-0.932 16.53-6.838 20.974l-185.070 140.38c-5.906 4.462-4.664 8.248 2.724 8.394l232.21 4.736c7.406 0.146 15.452 5.978 17.882 12.984l76.27 219.374c2.432 7.004 6.418 7.004 8.832 0l76.232-219.392c2.432-7.002 10.458-12.836 17.902-12.982l232.21-4.736c7.406-0.146 8.63-3.93 2.726-8.392z" />
<glyph unicode="&#xe613;" glyph-name="map-park" d="M562.36 340.956c-5.322 0-10.496 0.512-15.616 1.244-4.408-75.996-67.438-136.558-144.53-136.558-19.128 0-37.54 4.134-54.766 11.192v-73.014c73.472-0.018 134.052 22.948 222.72 59.448 21.010 8.65 44.746 14.866 69.85 19v151.826c-19.73-20.298-47.122-33.134-77.658-33.134zM311.608 287.706l14.666-14.374c20.426-20.058 47.378-31.104 75.922-31.104 59.758 0 108.38 48.622 108.38 108.416 0 1.188-0.238 2.36-0.274 3.548-32.768 17.846-55.204 52.058-56.668 91.63-4.626 2.504-9.454 4.754-14.5 6.584l-13.020 4.718 1.024 13.824c0.182 2.414 0.31 3.766 0.31 5.138 0 41.928-34.14 76.050-76.106 76.050-33.17 0-62.262-21.212-72.392-52.808l-3.712-11.594-12.142-1.042c-31.616-2.706-55.442-28.508-55.442-59.96 0-18.414 8.356-31.762 15.342-39.77l14.080-16.038-18.010-11.448c-17.682-11.246-28.252-30.318-28.252-51.034 0-33.408 27.174-60.582 60.562-60.582 18.616 0 35.968 8.612 47.634 23.644l12.598 16.202zM901.65 960h-779.356c-67.51 0-122.296-54.746-122.296-122.35v-778.898c0-67.858 54.784-122.752 122.296-122.752h779.356c67.566 0 122.35 54.894 122.35 122.752v778.898c0 67.602-54.784 122.35-122.35 122.35zM900.698 188.014c17.994-9.144 25.16-31.158 16.018-49.17-9.16-17.976-31.214-25.178-49.17-16-74.15 37.706-195.072 43.448-269.568 12.8-94.482-38.876-164.096-65.078-249.764-65.078-50.87 0-107.392 9.254-178.14 30.5-19.346 5.816-30.318 26.222-24.502 45.568s26.258 30.28 45.55 24.466c38.29-11.502 71.332-18.944 101.466-23.15v72.996c-12.746-6.090-26.642-9.674-41.198-9.674-53.558 0-97.134 43.576-97.134 97.152 0 26.826 10.972 51.894 30.026 70.034-8.576 14.72-13.166 31.342-13.166 48.256 0 46.63 32.438 85.466 77.166 94.702 17.81 40.686 57.894 67.274 103.094 67.274 56.248 0 102.986-41.418 111.322-95.342 8.776 19.894 23.26 36.736 41.49 48.33-16.858 19.182-27.428 44.068-27.428 71.606 0 56.924 43.886 103.13 99.62 107.96 16.86 52.462 65.976 90.424 124.068 90.424 71.972 0 130.322-58.314 130.322-130.286 0-3.036-0.256-5.998-0.456-8.96 67.218-24.41 115.29-88.63 115.29-164.296 0-96.602-78.318-174.938-174.922-174.938-20.188 0-39.48 3.602-57.51 9.894v-114.926c66.778-0.038 135.57-13.696 187.52-40.138z" />
<glyph unicode="&#xe614;" glyph-name="map-parking" d="M584.028 673.242l-155.21 0.182v-210.816l155.21-0.018c58.184 0 105.254 47.142 105.254 105.216 0 58.258-47.068 105.436-105.254 105.436zM901.65 960.018h-779.318c-67.584 0-122.332-54.712-122.332-122.258v-779.336c0-67.584 54.746-122.404 122.332-122.404h779.318c67.602 0 122.35 54.822 122.35 122.404v779.336c0 67.528-54.746 122.258-122.35 122.258zM581.888 327.186l-153.070 0.22v-225.866h-137.106v701.44h290.176c131.456 0 237.898-106.458 237.898-237.86 0-131.492-106.424-237.934-237.896-237.934z" />
<glyph unicode="&#xe615;" glyph-name="map-recreation" d="M901.576 960h-779.082c-67.674 0-122.496-54.802-122.496-122.404v-779.392c0-67.566 54.82-122.202 122.496-122.202h779.062c67.51 0 122.442 54.638 122.442 122.222v779.374c0 67.602-54.93 122.404-122.424 122.404zM281.362 898.852l172.288-302.536-23.57-17.134-181.832 319.488 33.114 0.182zM139.83 533.998c0 45.348 36.808 82.138 82.138 82.138 45.532 0 82.358-36.79 82.358-82.138 0-45.532-36.826-82.36-82.358-82.36-45.33 0-82.158 36.826-82.14 82.36zM708.352 275.602l-111.672-81.134c-3.64-2.65-8.888-1.828-11.812 1.846l-15.086 21.010c-2.634 3.64-1.902 8.888 1.754 11.74l111.762 81.152c3.822 2.65 8.886 1.828 11.722-1.828l15.068-21.028c2.726-3.64 1.92-8.888-1.736-11.758zM809.434 336.11l-133.54 0.22-170.46-120.394c-60.106-43.282-96.494 4.242-96.494 4.242l-133.962 133.962c-22.474 26.898-17.608 78.080 9.326 100.754l185.326 131.932c18.432 15.322 45.714 12.928 61.33-5.286 15.25-18.468 12.928-45.934-5.466-61.294l-118.564-86.822 85.176-84.15 123.794 87.004c9.71 7.076 20.754 12.544 33.5 12.544l160.038-0.218c31.25 0 56.246-25.29 56.246-56.248 0-31.14-24.996-56.246-56.246-56.246zM557.038 414.83l-23.386-17.39-44.198 78.098 23.278 17.006 44.306-77.714z" />
<glyph unicode="&#xe616;" glyph-name="map-skate" d="M901.778 960h-779.356c-67.584 0-122.424-54.784-122.424-122.424v-779.062c0-67.584 54.838-122.514 122.424-122.514h779.374c67.492 0 122.202 54.93 122.202 122.496v779.082c0 67.64-54.712 122.424-122.222 122.424zM583.24 887.88c37.798 0 68.608-30.536 68.608-68.314 0-37.962-30.812-68.608-68.608-68.608-37.85 0-68.59 30.648-68.608 68.608 0 37.778 30.756 68.314 68.608 68.314zM249.93 87.35c-24.174 0-43.904 19.64-43.904 43.722 0 7.386 1.902 14.39 5.046 20.352l165.962 279.954 62.098-62.098-149.742-257.206c-7.076-14.574-22.052-24.722-39.462-24.722zM419.108-0.256c-14.354 0-25.784 11.538-25.784 25.784 0 14.264 11.428 25.818 25.784 25.818 14.17 0 25.71-11.558 25.71-25.818 0-14.246-11.538-25.784-25.71-25.784zM627.674 0.256c-14.172 0-25.818 11.648-25.818 26.002 0 14.39 11.648 25.928 25.818 25.928 14.246 0 25.784-11.538 25.784-25.928 0-14.374-11.538-26.002-25.784-26.002zM692.826 93.020c0-15.048-15.068-16.384-15.068-16.384h-309.65c0 0-15.178 0.822-15.178 16.384v1.426c0 15.36 15.178 16.384 15.178 16.384h309.65c0 0 15.068-1.426 15.068-16.384v-1.426zM817.462 665.894h-209.318l-99.968-174.994 101.778-100.572c35.474-34.212 12.544-72.65 12.544-72.65l-87.004-154.606c-7.222-14.574-22.072-24.778-39.462-24.778-24.1 0-43.722 19.712-43.722 43.74 0 7.57 1.83 14.464 5.028 20.534l65.17 114.542-127.178 126.282c-48.678 48.858-13.97 101.924-13.97 101.924l68.498 120.814-181.45-0.22c-20.152 0-36.134 16.146-36.134 36.042 0 19.566 15.982 35.858 36.134 35.858h549.048c19.932 0 35.932-16.294 35.932-36.078s-16-35.84-35.932-35.84z" />
<glyph unicode="&#xe617;" glyph-name="map-stairs" d="M901.65 959.982h-779.264c-67.474 0-122.386-54.784-122.386-122.312v-779.282c0-67.528 54.912-122.35 122.386-122.35l779.264-0.018c67.62 0 122.35 54.822 122.35 122.332v779.318c0 67.528-54.73 122.312-122.35 122.312zM950.856 730.99h-158.098v-160.22h-160.312v-162.504h-160.018v-161.664h-160.678v-162.98h-238.61v82.158h159.762v162.634h158.758v163.712h161.226v160.678h160.182v159.616h237.788v-81.426z" />
<glyph unicode="&#xe618;" glyph-name="map-tennis" d="M222.408 676.352c-31.926 22.656-72.174 20.974-89.784-3.64-5.358-7.68-8.064-16.568-8.064-26.496l0.786-9.544c3.254-18.962 15.396-37.176 33.39-49.92 17.792-12.928 39.002-18.394 58.112-15.214 13.568 2.486 24.394 8.924 31.47 18.852 17.572 24.65 5.85 63.25-25.912 85.962zM896.294 960h-768.678c-70.29 0-127.616-57.144-127.616-127.544v-768.842c0-70.29 57.326-127.616 127.616-127.616h768.678c70.49 0 127.706 57.326 127.706 127.616v768.842c0 70.4-57.216 127.544-127.706 127.544zM601.784 857.71c36.39 0 66.102-29.714 66.102-66.36 0-36.534-29.714-66.066-66.102-66.066-36.608 0-66.322 29.532-66.322 66.066 0 36.644 29.714 66.36 66.322 66.36zM178.468 410.184c-16.786 0-30.538 13.64-30.538 30.354 0 16.75 13.752 30.5 30.538 30.5 16.676 0 30.318-13.75 30.318-30.5 0-16.712-13.64-30.354-30.318-30.354zM881.572 78.648c-8.284-6.948-18.616-10.386-29.422-9.562-10.606 1.116-20.298 6.162-27.392 14.246 0 0-127.89 150.856-127.89 151.040-6.546 6.784-11.026 15.288-12.726 24.594 0 0-18.286 105.764-20.316 117.614-18.98-19.932-90.168-94.866-98.67-103.754v-174.39c0-22.254-18.286-40.23-40.32-40.23-22.144 0-40.356 17.976-40.356 40.23v208.658c0 11.502 5.084 22.546 14.044 30.848l1.754 1.902c0 0 92.782 98.486 95.214 100.9-0.384 1.81-21.432 101.102-21.432 101.102l-30.538-61.348c0 0-4.024-8.21-9.582-12.032-4.168-3.036-14.044-6.072-14.044-6.072l-116.188-22.638c-18.104-3.64-35.878 8.502-39.314 26.678-0.42 2.030-0.604 4.040-0.604 6.072-0.202 6.474 3.036 12.762 4.864 15.58-17.39 12.324-82.926 58.496-82.926 58.68-19 12.966-57.82 1.024-58.424 0.602l-5.962-1.242c-25.894-4.48-54.106 2.67-77.642 19.456-23.57 16.786-39.534 40.996-43.996 67.072 0 0-1.206 13.202-1.206 13.384 0 15.414 4.462 29.678 12.966 41.71 11.008 15.322 28.216 25.892 48.33 29.294 25.894 4.26 54.182-2.89 77.64-19.418 25.894-18.36 42.058-45.038 44.598-73.4 0.182-1.572 2.504-42.862 22.216-56.686l87.35-61.786c0.714 0.44 1.536 0.604 2.322 0.822 3.254 0.494 96.786 18.706 96.786 18.706l61.568 123.758c15.25 36.040 41.746 47.706 42.642 47.928 7.186 4.024 13.75 6.712 20.534 8.174 16.786 3.64 33.682 0.932 48.822-6.71l119.606-68.152c0 0 9.818-5.466 14.28-9.928 3.11-3.218 5.65-7.462 5.65-7.462l61.568-117.54c4.242-7.9 5.066-17.006 2.322-25.51-2.616-8.666-8.466-15.634-16.366-19.712-7.9-4.224-17.006-5.156-25.674-2.506-8.504 2.726-15.688 8.466-19.932 16.366 0 0-56.21 107.062-57.034 108.856-0.712 0.384-15.854 9.106-32.64 18.778 10.496-48.494 24.138-110.646 23.972-110.428 0 0 5.028-21.962 5.028-22.144 0-0.44 33.682-196.682 33.682-196.682l107.576-126.866c6.472-7.79 9.4-16.896 9.326-26.112-0.038-11.428-4.792-22.948-14.080-30.738z" />
<glyph unicode="&#xe619;" glyph-name="map-water" d="M914.286 960h-804.572c-60.582 0-109.714-49.134-109.714-109.714v-804.572c0-60.562 49.134-109.714 109.714-109.714h804.572c60.562 0 109.714 49.152 109.714 109.714v804.572c0 60.582-49.152 109.714-109.714 109.714zM398.738 712.794c26.002 0 49.17 12.746 62.282 33.006 13.258-19.566 36.188-33.006 61.568-33.006 25.654 0 48.97 12.746 62.098 32.86 13.274-19.674 36.278-32.86 61.714-32.86 25.928 0 48.786 13.422 61.86 33.646l-10.424-72.448c-13.35-12.964-31.47-18.066-51.418-18.066-25.434 0-48.438 10.35-61.714 30.006-13.148-20.040-36.424-30.006-62.098-30.006-25.4 0-48.33 10.534-61.568 30.134-13.11-20.188-36.278-30.134-62.282-30.134-18.816 0-36.040 4.278-48.968 15.818l-9.82 70.4c13.368-17.754 34.762-29.348 58.77-29.348zM716.544 78.994h-385.080l-112.146 716.25 75.466-0.64 102.106-640h254.208l102.144 640 75.502 0.64-112.202-716.25z" />
<glyph unicode="&#xe61a;" glyph-name="mail" d="M512 960c-282.726 0-512-229.274-512-512 0-282.778 229.274-512 512-512s512 229.222 512 512c0 282.726-229.274 512-512 512zM193.178 676.352v0.358l637.594-0.358c-4.198 0-8.448-0.922-12.134-3.533l-306.637-220.006-306.688 220.006c-3.686 2.611-7.936 3.533-12.134 3.533zM830.822 630.374v-411.034h-637.645v411.034l306.688-220.058c3.635-2.611 7.885-3.891 12.134-3.891s8.499 1.28 12.134 3.891l306.688 220.058z" />
<glyph unicode="&#xe61b;" glyph-name="audio-tour" d="M901.632 960h-779.264c-67.602 0-122.368-54.565-122.368-122.258v-779.264c0-67.621 54.766-122.478 122.368-122.478h779.246c67.621 0 122.386 54.857 122.386 122.478v779.264c0 67.694-54.766 122.258-122.368 122.258zM384.274 110.299c-31.543-5.595-62.007 15.689-67.584 47.323l-28.434 161.061c-5.522 31.397 15.927 62.080 47.397 67.584s62.080-15.835 67.584-47.397l28.434-160.987c5.577-31.525-15.781-62.062-47.397-67.584zM735.744 318.683l-28.434-161.061c-5.595-31.616-35.968-52.919-67.584-47.323-31.616 5.522-52.974 36.059-47.397 67.584l28.434 160.987c5.522 31.561 36.206 52.919 67.584 47.397 31.47-5.522 52.919-36.187 47.397-67.584zM826.203 243.401l-8.082-46.007c-6.674-37.906-43.191-63.561-81.17-56.777l32.457 183.899c3.803-0.603 7.534-1.627 11.099-2.871 15.086 35.2 23.387 73.966 23.387 114.67 0 161.207-130.67 291.895-291.895 291.895-161.134 0-291.895-130.67-291.895-291.895 0-40.722 8.393-79.488 23.387-114.67 3.566 1.243 7.296 2.267 11.173 2.871l32.384-183.899c-37.979-6.766-74.496 18.871-81.17 56.777l-8.082 46.007c-2.011 11.575-1.097 23.003 2.341 33.408-24.558 47.854-38.4 102.089-38.4 159.506 0.018 193.445 156.8 350.318 350.263 350.318s350.245-156.873 350.245-350.336c0-57.417-13.842-111.634-38.4-159.506 3.438-10.405 4.37-21.833 2.359-33.39z" />
</font>
</defs>
</svg>
