<?xml version="1.0" encoding="utf-8"?>
<!-- Generator: Adobe Illustrator 16.0.4, SVG Export Plug-In . SVG Version: 6.00 Build 0)  -->
<!DOCTYPE svg PUBLIC "-//W3C//DTD SVG 1.1//EN" "http://www.w3.org/Graphics/SVG/1.1/DTD/svg11.dtd">
<svg version="1.1" id="Layer_1" xmlns="http://www.w3.org/2000/svg" xmlns:xlink="http://www.w3.org/1999/xlink" x="0px" y="0px"
	 width="331.891px" height="70px" viewBox="0 0 331.891 70" enable-background="new 0 0 331.891 70" xml:space="preserve">
<g>
	<g>
		<rect x="0.067" y="35.247" fill="#8FAED6" width="69.757" height="34.754"/>
		<rect x="0.069" fill="#9AB07C" stroke="#98AF7C" stroke-width="0.1392" width="69.765" height="35.485"/>
		<path fill="none" d="M9.09,32.194l0.021,1.063l-0.872-3.236c0.127-0.482,0.367-0.976,0.774-1.433
			c0.159-0.176,0.299-0.341,0.435-0.495l-0.919,1.602L9.09,32.194z"/>
		<path fill="none" d="M9.468,26.402c-0.274,0.861-0.705,1.322-0.705,1.322c-0.794-0.647-1.019-1.623-0.985-2.573L8.706,22.2
			C9.979,23.396,9.849,25.209,9.468,26.402z"/>
		<path fill="none" d="M43.938,16.638c0.011,0.158,1.367,0.724,1.496,0.983c0.172,0.338,2.091,1.027,2.091,1.027
			s-0.884-1.61-3.059-1.995C44.076,16.585,43.936,16.591,43.938,16.638z M45.87,17.348c0,0,0.629,0.282,0.946,0.78l-0.348-0.108
			L45.87,17.348z"/>
		<path fill="none" d="M42.913,10.951c0,0,0.728-0.111,2.266,0.294c1.543,0.404,2.324,0.731,2.679,0.756
			c0.35,0.027,0.644,0.112,0.644,0.112s-1.454-1.921-6.537-3.082c0,0,1.676-0.16,2.703,0.076c1.026,0.244,2.268,0.462,2.699,0.517
			c0,0-0.215-0.702-1.861-1.162c-1.649-0.457-3.567-0.972-3.754-1.026c-0.19-0.055-1.353-0.189-1.517-0.164
			c0,0,0.137-0.351,2.269-0.158c2.137,0.186,3.327,0.322,3.327,0.322s-0.083-0.127-0.314-0.322l-0.233-0.192
			c-0.765-0.562-2.475-1.462-6.047-1.974c-1.314-0.183-3.099-0.134-5.997,2.042c0.409-0.028,0.892-0.044,1.179,0
			c0.186,0.038-0.952,0.282-1.531,0.489c-0.245,0.094-0.497,0.182-0.739,0.269c-0.288,0.189-0.583,0.361-0.894,0.522
			c0.723-0.128,1.682-0.278,2.125-0.241c0.451,0.041-0.233,0.223-0.552,0.363c-0.101,0.044-0.346,0.17-0.606,0.293
			c0.091,0,0.18,0,0.266,0l0.003-0.003c0,0,3.022-0.047,4.152,0.189c1.125,0.236,2.882,0.921,2.882,0.921s-1.395-0.205-2.561-0.152
			c-0.928,0.041-1.701,0.326-1.708,0.357c-0.018,0.135,4.527,0.671,5.353,1.067c1.671,0.813,1.702,1.361,1.702,1.361
			s-2.133-0.87-3.246-0.531c-0.036,0.016,2.77,0.807,4.307,2.568c0.019,0.023-2.07-0.533-2.619-0.461
			c-0.494,0.064,0.549,0.753,0.705,0.812c0.224,0.074,1.345,0.417,1.747,0.716c0.049,0.019,0.099,0.043,0.149,0.062
			c0.129-0.02,1.146-0.159,2.634,0.275c1.597,0.456,2.084,0.487,2.084,0.487s-0.598-1.271-1.782-1.868
			c-1.189-0.593-2.435-1.161-2.435-1.161s0.432-0.216,1.567,0.085c1.135,0.294,2.188,0.563,2.511,0.62
			c0.325,0.053,0.621,0.104,0.621,0.104S47.561,12.568,42.913,10.951z M44.926,14.109l1.516,0.696h-0.483L44.926,14.109z
			 M38.361,5.477c1.445-0.485,3.523,0.205,3.523,0.205L38.361,5.477z M42.366,9.487l2.003,0.41
			C42.847,10.102,42.366,9.487,42.366,9.487z"/>
		<path fill="none" d="M56.676,20.583l-0.5-0.158l-0.027,0.17c-0.019,0-0.04,0.006-0.06,0.008l-0.464-0.109l-0.033,0.214
			c0,0-0.018,0-0.027,0.004l-0.529-0.157l-0.028,0.2c-0.031-0.002-0.062-0.006-0.084-0.016l-0.207-0.109
			c-0.046-0.054-0.068-0.133-0.063-0.23c0,0,0.114-0.33,0.074-0.556l0.631-0.012c0,0-0.07,0.114,0.038,0.205
			c0.108,0.094,0.215,0.123,0.231,0.237c0,0,0.343-0.57,0.889-0.539c0.543,0.035,0.377,0.891,0.377,0.891
			S56.82,20.593,56.676,20.583z"/>
		<g>
			<path fill="none" d="M10.645,26.109l0.326-0.9C10.785,25.389,10.202,25.863,10.645,26.109z"/>
			<path fill="none" d="M10.562,21.991l-0.136-0.178c-0.104,0.184-0.046,0.291-0.009,0.348c0.027,0.039,0.08,0.09,0.225,0.09
				L10.562,21.991z"/>
			<path fill="none" d="M13.866,26.166l-0.311,0.74l0.357-0.214c0.323-0.249,0.669-0.49,1.038-0.722L13.866,26.166z"/>
			<path fill="none" d="M10.853,24.766c0.051,0.016,0.143-0.006,0.239-0.035l0.158-0.447l-0.079-0.273
				C10.63,24.361,10.716,24.746,10.853,24.766z"/>
			<path fill="none" d="M8.706,22.2l-0.929,2.951c-0.033,0.95,0.191,1.926,0.985,2.573c0,0,0.431-0.461,0.705-1.322
				C9.849,25.209,9.979,23.396,8.706,22.2z"/>
			<path fill="none" d="M10.781,23.644c0.104-0.004,0.19-0.007,0.273-0.023l-0.205-0.672c-0.132,0.138-0.237,0.254-0.282,0.318
				C10.442,23.459,10.466,23.652,10.781,23.644z"/>
			<path fill="none" d="M11.739,13.789c1.447-0.493,3.439-1.16,3.439-1.16l2.558-0.377l1.341-0.812
				c-1.561,0.17-3.202,0.613-4.283,0.949C13.792,12.75,12.693,13.21,11.739,13.789z"/>
			<path fill="none" d="M44.467,16.653c-0.391-0.068-0.532-0.062-0.529-0.016c0.011,0.158,1.367,0.724,1.496,0.983
				c0.172,0.338,2.091,1.027,2.091,1.027S46.642,17.038,44.467,16.653z"/>
			<path fill="none" d="M45.424,13.41c1.135,0.294,2.188,0.563,2.511,0.62c0.325,0.053,0.621,0.104,0.621,0.104
				s-0.995-1.566-5.643-3.184c0,0,0.728-0.111,2.266,0.294c1.543,0.404,2.324,0.731,2.679,0.756c0.35,0.027,0.644,0.112,0.644,0.112
				s-1.454-1.921-6.537-3.082c0,0,1.676-0.16,2.703,0.076c1.026,0.244,2.268,0.462,2.699,0.517c0,0-0.215-0.702-1.861-1.162
				c-1.649-0.457-3.567-0.972-3.754-1.026c-0.19-0.055-1.353-0.189-1.517-0.164c0,0,0.137-0.351,2.269-0.158
				c2.137,0.186,3.327,0.322,3.327,0.322s-0.083-0.127-0.314-0.322l-0.233-0.192c-0.765-0.562-2.475-1.462-6.047-1.974
				c-1.314-0.183-3.099-0.134-5.997,2.042c0.409-0.028,0.892-0.044,1.179,0c0.186,0.038-0.952,0.282-1.531,0.489
				c-0.245,0.094-0.497,0.182-0.739,0.269c-0.288,0.189-0.583,0.361-0.894,0.522c0.723-0.128,1.682-0.278,2.125-0.241
				c0.451,0.041-0.233,0.223-0.552,0.363c-0.101,0.044-0.346,0.17-0.606,0.293h0.266l0.003-0.003c0,0,3.022-0.047,4.152,0.189
				c1.125,0.236,2.882,0.921,2.882,0.921s-1.395-0.205-2.561-0.152c-0.928,0.041-1.701,0.326-1.708,0.357
				c-0.018,0.135,4.527,0.671,5.353,1.067c1.671,0.813,1.702,1.361,1.702,1.361s-2.133-0.87-3.246-0.531
				c-0.036,0.016,2.77,0.807,4.307,2.568c0.019,0.023-2.07-0.533-2.619-0.461c-0.494,0.064,0.549,0.753,0.705,0.812
				c0.224,0.074,1.345,0.417,1.747,0.716c0.049,0.019,0.099,0.043,0.149,0.062c0.129-0.02,1.146-0.159,2.634,0.275
				c1.597,0.456,2.084,0.487,2.084,0.487s-0.598-1.271-1.782-1.868c-1.189-0.593-2.435-1.161-2.435-1.161
				S44.289,13.109,45.424,13.41z"/>
			<path fill="none" d="M56.516,19.734c-0.545-0.031-0.889,0.539-0.889,0.539c-0.017-0.114-0.123-0.144-0.231-0.237
				c-0.108-0.091-0.038-0.205-0.038-0.205l-0.631,0.012c0.04,0.226-0.074,0.556-0.074,0.556c-0.005,0.098,0.018,0.177,0.063,0.23
				l0.207,0.109c0.022,0.01,0.053,0.014,0.084,0.016l0.028-0.2l0.529,0.157c0.01-0.004,0.021-0.004,0.021-0.004l0.039-0.214
				l0.464,0.109c0.021-0.002,0.042-0.008,0.06-0.008l0.027-0.17l0.5,0.158c0.145,0.01,0.218,0.042,0.218,0.042
				S57.059,19.77,56.516,19.734z"/>
			<path fill="none" d="M16.503,33.038l-0.355,0.054c0,0-0.208,0.047-0.025-0.331c0.194-0.375,0.216-0.639,0.145-0.659
				c-0.072-0.024-0.424,0.021-0.424,0.021s-0.045-0.068,0.049-0.211c0.089-0.14,0.54-0.54,0.351-0.847c0,0-0.682,0.092-0.611,0.023
				c0.071-0.068,0.448-0.379,0.516-0.634c0.069-0.255,0.069-0.47,0.069-0.47l-0.255,0.073c0,0-0.4,0.019,0-0.354
				c0.227-0.22,0.429-0.497,0.547-0.771c-0.451,0.299-0.693,0.15-0.693,0.15c0.091-0.087,0.295-0.354,0.469-0.595
				c-0.784,0.285-2.569,1.069-2.351,2.086c0.286,1.294,0.522,1.6,0.825,2.161c0.307,0.57,0.896,1.485,0.847,1.977
				c0,0,0.201,0.072,0.409,0.025l0.281-0.275c-0.129,0.006-0.198-0.037-0.198-0.037c0.087-0.087,0.268-0.329,0.433-0.552
				c0.006-0.062,0.013-0.118,0.018-0.178c-0.295,0.116-0.451,0.023-0.451,0.023c0.087-0.09,0.283-0.343,0.459-0.579
				C16.537,33.001,16.503,33.038,16.503,33.038z"/>
			<path fill="#007051" d="M62.787,17.516l-0.245-1.141l-0.055,0.048c-0.142-0.628-0.39-0.994-0.527-1.263
				c-0.249-0.469-0.521-0.889-0.582-1.166l0.127-0.646l-0.062-0.207l0.091-0.343l-0.157,0.103l-0.131-0.462l-0.009-0.392
				l-0.158,0.142l-0.607-0.772L60.4,11.694l-0.621-0.901l-0.051,0.264l-0.32-0.299l-0.058,0.178l-0.411-0.363l-0.032,0.244
				l-0.583-0.348l0.005,0.152c-0.042-0.009-0.091-0.014-0.141-0.023l-0.205-0.129l-0.039,0.089
				c-0.185-0.022-0.335-0.042-0.335-0.042l-0.297-0.108l-0.515,0.108l-0.213-0.108l-0.651,0.323l-0.029-0.107l-0.725,0.328
				l-0.111-0.084l-0.538,0.293l-0.106-0.134c0,0-0.382,0.219-0.597,0.245c-0.219,0.024-0.137-0.213-0.137-0.213l-0.623,0.213
				c-1.641,3.685,0.952,3.853,0.952,3.853s1.777,0.086,1.572,1.641c-0.141,1.009-1.593,1.309-2.15,1.336
				c-0.548,0.023-1.336-0.548-1.747-1.109c-0.783-1.079-0.938-2.649-0.783-3.822C51.106,11.689,52.453,11,52.453,11
				c-0.131-0.01-0.52-0.138-0.858-0.25l-0.036-0.373l-0.53,0.166l0,0c-0.004-0.002-0.251-0.36-0.736-0.903l0.089-0.363L49.62,8.863
				l-0.098-0.02c-0.184-0.178-0.387-0.358-0.599-0.552l-0.267-0.608h-0.475c-0.117-0.094-0.246-0.188-0.376-0.284l-0.256-0.479
				h-0.41c-0.209-0.137-0.418-0.273-0.64-0.41l-0.262-0.48l-1.173-0.349l-1.594-0.83l-0.301,0.058
				c-0.21-0.071-0.428-0.145-0.649-0.212l-0.222-0.261l-1.385-0.349L40.33,4.167c-0.255-0.036-0.497-0.058-0.734-0.081l-0.41-0.205
				l-0.783,0.2c-2.311,0.142-3.702,1.208-4.835,1.782c-1.164,0.591-2.74,1.264-3.555,1.604C28.425,7.974,25.62,9.1,22.16,9.888
				c-0.143,0.018-0.29,0.041-0.437,0.059c-4.887,0.675-6.637,0.923-9.433,2.093c-0.586,0.25-1.133,0.523-1.628,0.819
				c-1.759,0.865-1.86,1.251-1.86,1.251l-0.118,0.385c-0.086,0.114-0.173,0.226-0.241,0.343c-0.889,1.435-0.702,2.903-0.676,3.627
				c0.025,0.585,0.042,1.719,0.011,2.442L7.084,24.42c-0.282,0.958-0.455,1.605,0.251,3.026c1.064,2.157-0.243,2.648-0.243,2.648
				l0,0c0.005,0.016,0.387,1.095,0.754,2.369c-1.267,1.631-1.153,2.758-1.153,2.758c0.346-0.033,0.626-0.397,0.742-0.618
				c0.123-0.229,0.505-0.692,0.505-0.692c0.063-0.062,0.145-0.193,0.243-0.212c0.168,0.67,0.3,1.377,0.346,1.886h2.242l1.694-4.542
				c0,0,1.695,2.522,1.95,3.122c0.261,0.61,0.771,1.42,0.771,1.42h3.569l-0.694-3.094l-0.077,0.1c0.204-0.858,0.02-1.433-0.091-2.53
				c-0.127-1.204,0.236-1.758,0.391-1.938l4.78,2.306l1.173,0.18c1.91,0.606,3.313,0.507,3.326,0.501l0,0l0,0l0,0
				c1.572-1.639,9.143,0.291,9.143,0.291s0.905,1.812,1.07,2.591c0.165,0.788,0.406,1.586,0.406,1.586l2.977-0.037
				c0,0,1.072-2.709,1.939-3.678c1.596-1.801,5.566-1.878,6.923-1.837l0.503,0.654l0.272-0.12l0.65,0.479
				c0.068,0.039,0.461,0.526,0.557,0.059l0.037,1.493c-0.091,0.269,0.055,0.657,0.15,0.88l-0.055,0.438l0.55-0.14l0.252-0.422
				c0.259-0.15,0.49-0.347,0.706-0.551l0.583-0.603c0.116-0.119,0.224-0.25,0.326-0.359l0.188,0.057l0.574-0.472l0.132-0.005
				c0.53-0.327,1.317-0.464,1.944-0.715c0.727-0.295,1.409-1.111,1.975-1.564c0.565-0.463,1.212-0.438,1.212-0.438
				c0.215-0.243,0.378-0.969,0.378-0.969s-0.325-0.059-0.676-0.084c-0.35-0.023-1.001-0.321-1.433-0.59c-0.431-0.273-0.73,0-0.73,0
				s-0.175,0.241,0.095-0.566c0.27-0.806,1.754,0.22,1.947,0.38c0.184,0.159,0.672,0.354,0.672,0.354
				c0.194-0.195,0.637-1.303,0.696-2.953c0.027-0.863,0.113-1.531,0.268-2.341h0.014v-0.062c0.011-0.068,0.024-0.139,0.037-0.209
				l0.105,0.037l0.103-0.915l0.125,0.019l0.033-0.832c0.007-0.021,0.008-0.037,0.008-0.057l0.113,0.164l0.091-0.829l0.069,0.172
				l0.031-0.865l0.084,0.124l0.021-0.381l0.104,0.07l-0.104-0.971L62.787,17.516z M9.468,26.402
				c-0.274,0.861-0.705,1.322-0.705,1.322c-0.794-0.647-1.019-1.623-0.985-2.573L8.706,22.2C9.979,23.396,9.849,25.209,9.468,26.402
				z M45.435,17.621c-0.129-0.26-1.485-0.825-1.496-0.983c-0.003-0.047,0.138-0.053,0.529,0.016
				c2.174,0.385,3.059,1.995,3.059,1.995S45.606,17.959,45.435,17.621z M46.291,14.486c1.185,0.597,1.782,1.868,1.782,1.868
				s-0.488-0.031-2.084-0.487c-1.488-0.435-2.505-0.295-2.634-0.275c-0.05-0.02-0.1-0.044-0.149-0.062
				c-0.402-0.299-1.523-0.642-1.747-0.716c-0.155-0.059-1.198-0.747-0.705-0.812c0.549-0.072,2.638,0.484,2.619,0.461
				c-1.537-1.762-4.343-2.553-4.307-2.568c1.112-0.339,3.246,0.531,3.246,0.531s-0.031-0.548-1.702-1.361
				c-0.825-0.396-5.37-0.933-5.353-1.067c0.007-0.031,0.78-0.316,1.708-0.357c1.166-0.053,2.561,0.152,2.561,0.152
				s-1.757-0.685-2.882-0.921c-1.13-0.236-4.152-0.189-4.152-0.189l-0.003,0.003h-0.266c0.26-0.123,0.505-0.249,0.606-0.293
				c0.319-0.141,1.002-0.322,0.552-0.363c-0.444-0.037-1.402,0.113-2.125,0.241c0.311-0.161,0.606-0.333,0.894-0.522
				c0.242-0.087,0.494-0.175,0.739-0.269c0.579-0.207,1.717-0.451,1.531-0.489c-0.288-0.044-0.771-0.028-1.179,0
				c2.898-2.176,4.683-2.225,5.997-2.042c3.572,0.512,5.282,1.411,6.047,1.974l0.233,0.192c0.231,0.195,0.314,0.322,0.314,0.322
				s-1.19-0.137-3.327-0.322c-2.132-0.192-2.269,0.158-2.269,0.158c0.164-0.025,1.327,0.109,1.517,0.164
				c0.187,0.055,2.105,0.569,3.754,1.026c1.646,0.46,1.861,1.162,1.861,1.162c-0.431-0.055-1.673-0.272-2.699-0.517
				c-1.027-0.236-2.703-0.076-2.703-0.076c5.083,1.161,6.537,3.082,6.537,3.082s-0.293-0.085-0.644-0.112
				c-0.355-0.024-1.136-0.352-2.679-0.756c-1.538-0.405-2.266-0.294-2.266-0.294c4.648,1.617,5.643,3.184,5.643,3.184
				s-0.296-0.052-0.621-0.104c-0.323-0.057-1.376-0.326-2.511-0.62c-1.135-0.301-1.567-0.085-1.567-0.085
				S45.102,13.894,46.291,14.486z M56.9,20.419l-0.061,0.347c0,0-0.076-0.036-0.218-0.068l-0.465-0.222l-0.054,0.172
				c-0.021,0-0.036-0.001-0.063-0.001l-0.445-0.183l-0.059,0.214c-0.013,0-0.017,0.002-0.017,0.002l-0.512-0.227l-0.062,0.193
				c-0.027-0.01-0.052-0.018-0.077-0.021l-0.192-0.138c-0.037-0.062-0.047-0.143-0.027-0.239c0,0,0.152-0.316,0.145-0.545
				l0.63,0.069c0,0-0.087,0.105,0.008,0.209c0.092,0.111,0.196,0.16,0.197,0.27c0,0,0.165-0.101,0.31-0.234
				c0.053-0.039-0.022-0.156,0.063-0.181c0.115-0.038,0.638,0.142,0.638,0.142L56.9,20.419z"/>
		</g>
		<g>
			<path fill="#4089B6" stroke="#227BB7" stroke-width="0.1392" d="M42.295,39.086c-0.037,0-0.076,0.006-0.114,0.014
				C41.967,39.126,42.114,39.116,42.295,39.086z"/>
		</g>
		<path fill="#4089B6" stroke="#227BB7" stroke-width="0.1392" d="M18.783,40.02c-1.113-0.043-1.182,0.162-0.889,0.229
			c0,0,0.313,0.04,0.598,0.021c0.291-0.021,0.546,0.132,0.505-0.063C18.962,40.006,19.9,40.066,18.783,40.02z"/>
		<path fill="#FFFFFF" stroke="#227BB7" stroke-width="0.1392" d="M13,42.708c0,0.078,3.048,0.143,6.809,0.143
			c3.759,0,6.809-0.064,6.809-0.143c0-0.072-3.049-0.136-6.809-0.136C16.048,42.572,13,42.636,13,42.708z"/>
		<g>
			<path fill="#227BB7" d="M13.158,58.781c-0.354-0.113-0.538-0.035-0.688-0.082c-0.149-0.054,0.033-0.076,0.197-0.131
				c0.168-0.046,0.137-0.06,0.442-0.105c0.301-0.054-0.204-0.117-0.204-0.117c-0.486-0.088-0.899,0.163-1.29,0.223
				c-0.389,0.068-0.713-0.121-0.849-0.159c-0.139-0.039-0.493,0.038-0.555,0.154c-0.061,0.104,0.438,0.183,0.828,0.198
				c0.392,0.012,0.412,0.111,0.775,0.26c0.369,0.154,0.865-0.1,1.28-0.044C13.51,59.021,13.295,58.83,13.158,58.781z"/>
			<path fill="#227BB7" d="M26.097,61.85c0,0-0.088-0.134-0.406-0.105c-0.311,0.028-0.173,0.05-0.374,0.028
				c-0.201-0.028-0.516-0.04-0.639,0.077c-0.123,0.104-0.086,0.295,0.46,0.305c0.552,0.016,0.306-0.104,0.605-0.104
				C26.043,62.05,26.408,61.881,26.097,61.85z"/>
			<path fill="#227BB7" d="M30.555,62.958c0,0-0.087,0-0.579-0.088c-0.484-0.096-0.599-0.159-0.861-0.027
				c-0.262,0.133-0.021,0.176-0.44,0.159c-0.423-0.026-0.819-0.026-0.6,0.132c0.219,0.15,0.354,0.112,0.841,0.178
				c0.49,0.064,0.245,0.109,0.886,0.084C30.445,63.376,31.439,63.111,30.555,62.958z"/>
			<g>
				<path fill="#227BB7" d="M47.356,40.16c-1.111-0.041-1.184,0.164-0.889,0.228c0,0,0.311,0.043,0.596,0.021
					c0.292-0.023,0.548,0.135,0.507-0.062C47.535,40.145,48.473,40.206,47.356,40.16z"/>
				<path fill="#227BB7" d="M44.698,39.773c0.039,0.005,0.074,0.012,0.11,0.019c0.074-0.019,0.157-0.024,0.259-0.041
					C45.758,39.666,43.961,39.676,44.698,39.773z"/>
				<path fill="#227BB7" d="M49.046,63.534c0,0-0.268-0.086-0.622-0.045c-0.351,0.045-0.574,0.068-0.442,0.16
					c0.131,0.082,0.331,0.019,0.131,0.082c-0.2,0.067-0.332,0.179,0.027,0.226C48.492,64,49.551,63.581,49.046,63.534z"/>
				<path fill="#4089B6" stroke="#227BB7" stroke-width="0.1392" d="M48.953,62.737h0.003
					C48.943,62.737,48.942,62.737,48.953,62.737z"/>
				<path fill="#227BB7" d="M62.805,58.304c0,0-0.347,0.033-0.586,0c-0.244-0.035-1.141-0.037-1.002,0.205
					c0.136,0.245,0.31,0.347-0.069,0.45c-0.381,0.105-0.728,0.174-0.691,0.486c0.031,0.312,0.238,0.587-0.142,0.517
					c-0.379-0.068-0.826-0.031-0.621,0.07c0.208,0.104,0.484,0.208,1.001,0.068c0.522-0.139,0.245-0.655,0.623-0.758
					c0.377-0.104,0.863,0,0.76-0.349c-0.103-0.344-0.452-0.415,0.069-0.415C62.664,58.579,63.49,58.371,62.805,58.304z"/>
				<path fill="#227BB7" d="M56.545,60.575c0,0-0.209,0.034-0.692,0s-1-0.069-0.556,0.104
					C55.748,60.853,56.821,60.714,56.545,60.575z"/>
			</g>
		</g>
		<g>
			<path fill="#227BB7" d="M10.087,51.664c-0.875,0-1.584,0.064-1.584,0.135c0,0.08,0.605,0.016,1.476,0.082
				c1.212,0.092,3.088,0.014,3.088-0.066S10.962,51.664,10.087,51.664z"/>
			<path fill="#227BB7" d="M21.062,57.528c-0.877,0-1.587,0.061-1.587,0.141c0,0.078,0.606,0.01,1.478,0.078
				c1.212,0.096,3.087,0.01,3.087-0.068C24.04,57.606,21.935,57.528,21.062,57.528z"/>
			<path fill="#227BB7" d="M24.207,59.798c0,0.141,1.071,0.029,2.623,0.146c2.155,0.163,5.488,0.021,5.488-0.115l-5.294-0.273
				C25.467,59.556,24.207,59.661,24.207,59.798z"/>
			<path fill="#227BB7" d="M61.538,54.382c-0.136-0.257,0,0,0.326-0.507c0.328-0.507-0.074-0.524-0.238-0.87
				c-0.158-0.348,0.185-0.804,0.724-1.136c0.535-0.322,0.047-0.614-0.329-0.989c-0.376-0.376,0.437-0.788,0.092-0.926
				c-0.342-0.137-0.282-1.604-0.727-1.747l-0.051-0.009c-0.579-0.08-0.188-0.568,0.051-0.809c0.238-0.238,0.562-0.466,0.238-0.894
				c-0.373-0.497-2.842-0.096-3.834-0.194c-0.996-0.094,0.759-0.185,1.23-0.234c0.469-0.045,1.941,0,2.46-0.237
				c0.521-0.236-0.283-1.321-0.662-1.937c-0.376-0.615-1.135-0.615-1.654-0.806c-0.526-0.188,0.188-0.096,1.278-0.188
				c1.085-0.091-0.43-1.083-1.327-1.185c-0.899-0.096-1.133-0.473-2.364-0.804c-1.231-0.326-0.285-0.234,0-0.285
				c0.282-0.041,0.282-0.278,0-0.565c-0.183-0.18-1.268-0.223-2.165-0.271c-0.827-0.033-1.169-0.505-0.091-0.685
				c1.271,0.04-0.997-1.075-0.997-1.075c-0.125-0.243-0.362-1.005-0.737-0.926c-0.373,0.068-0.643-0.206-0.562,0.159
				c0.079,0.361,0.326,0.159,0.079,0.361c-0.242,0.204,0.598,0.582,0.72,0.912c0.045,0.11-1.738,0.106-1.699,0.572
				c0.026,0.226,0.897,0.351,0.884,0.509c-0.332,0.024-0.539,0.289-0.743,0.525c-0.247,0.283-0.478,0.456-0.567,0.168
				c-0.096-0.291-1.895,0.129-1.398,0.281c0.251,0.08,0.722,0.026,0.46,0.234c-0.209,0.073-0.319,0.001-0.527,0.001
				c-0.613,0-0.485-0.084-0.849-0.059s-1.017,0.123-1.239,0.083c-1.919-0.335-3.929-1.051-4.718-2.521
				c0.674,0.035,1.159,0.059,1.094-0.117c-0.064-0.178-0.01-0.039-0.263-0.215c-0.251-0.177,0.013-0.16-0.179-0.278
				c-0.183-0.105-0.147-0.047-0.537-0.139c-0.388-0.084-0.415-0.243-0.138-0.236c0.278,0.014,0.942-0.197,0.639-0.337
				c-0.302-0.14-0.916-0.044-1.056-0.26c-0.139-0.217-0.061-0.328,0.191-0.34c0.249-0.016,0.555-0.197,0.517-0.229
				c-0.039-0.025,0.061-0.308-0.916-0.401c-0.979-0.082-0.019-0.146-0.147-0.274c-0.126-0.123-0.563-0.123-0.563-0.123l-3.018-0.032
				c0,0-1.033,0.369-0.647,0.505c0.392,0.142,0.958,0.242,0.879,0.363c-0.076,0.13-0.098,0.152-0.275,0.23
				c-0.175,0.072-2.886,0.062-2.659,0.178c0.224,0.105,0.891,0.145,0.69,0.259c-0.204,0.115-0.752,0.215-0.516,0.324
				c0.242,0.113,0.441,0.199,0.639,0.191c0.2-0.016,0.839,0.082,0.678,0.123c-0.162,0.036-0.274-0.041-0.187,0.135
				c0.087,0.181,0.237,0.267-0.026,0.303c-0.265,0.038-1.14,0.091-0.9,0.267c0.237,0.176,0.613,0.275,0.839,0.262
				c0.224-0.016,1.164,0.188,0.964,0.288c-0.202,0.105-0.465,0.086-0.669,0.174c-0.197,0.09-0.612,0.273-0.313,0.43
				c0.037,0.011,0.095,0.027,0.173,0.047l-0.113,0.032l0.146-0.032c0.023,0.006,0.047,0.01,0.074,0.014
				c-0.044,0.093-0.191,0.263-0.623,0.325c-0.614,0.072-0.996-0.199-1.913,0.145c-0.916,0.344-5.299,0.688-5.946,0.269
				c-0.648-0.413-0.648-0.413-0.648-0.413s-1.298-0.348-2.634,0.225c-0.617,0.262-1.058,0.373-1.399,0.436
				c-0.019,0.003-0.038,0.003-0.063,0.005c-0.5,0.021-0.323,0.055-0.876,0c-0.549-0.045-1.013-0.063-1.216,0.038
				c-0.2,0.099-0.273,0,0.204,0.116c0.293,0.068,0.21,0.688-0.65,0.685c-0.862-0.008-0.582,0.04-0.728,0.072
				c-0.364,0.063-0.966,0.132-0.599,0.164c0.202,0.016,0.528,0.055,0.815,0.109c-0.051,0.041-0.422,0.264-1.28,0.193
				c-0.196-0.021-0.406-0.062-0.632-0.072c-0.891-0.03-1.891-0.099-1.328-0.164c0.571-0.066,1.761-0.267,1.295-0.403
				c-0.465-0.133-1.163-0.067-0.995-0.266c0.167-0.195,0.598-0.195,0.27-0.327c-0.338-0.133-1.23-0.397-0.968-0.533
				c0.266-0.137,1.331,0.1,0.563-0.365c-0.758-0.46-0.859-0.728-0.461-0.765c0.395-0.031-0.136-0.661,0.164-0.693
				c0.296-0.034,0.297-0.702,0.635-0.734c0.327-0.031,0.46-0.197,0.46-0.363c0-0.164,0.299-0.36,0.431-0.36
				c0.137,0,0.598-0.037,0.429-0.242c-0.16-0.195-1.159-0.296-1.159-0.296s0.036-0.164,0.466-0.23
				c0.432-0.064,0.299-0.59,0.186-0.645h-3.614c-0.104,0.014-0.164,0.089-0.1,0.164c0.18,0.191,0.373,0.176,0.268,0.255
				c-0.109,0.073-0.374,0.248-0.651,0.261c-0.287,0.013-0.579,0.049-0.639,0.136c-0.057,0.087,0.811,0.451,0.575,0.461
				c-0.236,0.007-0.329,0.576-0.018,0.614c0.311,0.033,0.218,0.275,0.018,0.291c-0.193,0.016,0.013,0.29-0.141,0.478
				c-0.164,0.189-0.336,0.383-0.776,0.33c-0.436-0.045-0.417,0.053-0.673,0.107c-0.252,0.057-0.252,0.15-0.3,0.247
				c-0.052,0.095-0.061,0.121,0.116,0.193c0.835,0.338-0.987,0.105-0.888,0.012c0.1-0.097,0.524-0.45,0.061-0.671
				c-0.466-0.229-1.402-0.305-1.695-0.344c-0.292-0.041-0.785-0.337-0.513-0.337c0.273,0,0.932,0.023,0.658-0.15
				c-0.274-0.178-0.633-0.285-0.218-0.301c0.421-0.027,1.54-0.22,0.772-0.384c-0.772-0.164-1.572-0.323-1.306-0.46
				c0.261-0.138,1.689-0.223,1.334-0.342c-0.352-0.113-1.043-0.357-0.491-0.369c0.313-0.01,0.679-0.123,0.317-0.191l-2.304-0.006
				c0,0-0.155,0.279-0.367,0.258c-0.08,0-0.184,0.018-0.285,0.043c-0.159,0.047-0.25,0.166-0.133,0.229
				c0.195,0.105,0.453,0.241,0.309,0.277c-0.227,0.056-0.421,0.069-0.246,0.177c0.174,0.107,0.069,0.214-0.159,0.214
				c-0.232,0-1.799,0.39-0.283,0.938c0.131,0.045-0.054,0.018-0.068,0.125c-0.018,0.106,0.015,0.137,0.386,0.249
				c0.37,0.104,0.759,0.314,0.497,0.382c-0.216,0.063-1.52,0.943-0.814,1.098c0.374,0.087,1.058,0.297,1.555,0.475
				c0.443,0.169,0.141,0.364-0.095,0.39c-0.324,0.034-0.65,0.074-0.822,0.088c-4.196,0.479-0.691,1.525-0.532,1.684
				c0.161,0.159,0.46,0.228,0.69,0.319c0.23,0.084,0.019-0.033,0.23,0.084c0.195,0.119-3.313,0.572,0.478,1.079
				c0.124,0.043,0.589,0.096,0.725,0.348c0.035,0.075,0.021,0.315-0.352,0.434c-0.188,0.056-0.892,0.443-1.056,0.529
				c-0.156,0.091,0.041,0.205,0.218,0.241c0.174,0.034,0.324,0.101,0.657,0.185c0.336,0.084,1.084,0.563,0.492,0.69
				c-3.205,0.692,2.179,1.251,3.494,1.251c7.406,0,13.413,0.102,13.413,0.226c0,0.116-6.007,0.332-13.413,0.214
				c-1.631-0.022-4.615,0.364-4.898,0.409c-1.291,0.216-1.349,0.621-1.439,0.751c-0.092,0.134-0.202,0.202,0.199,0.337
				c0.395,0.135,0.972,0.217,0.862,0.265c-0.109,0.043-1.674,0.134-1.483,0.376c0.174,0.218,0.716,0.351,1.278,0.396
				c0.018,0.048,0.177,0.091,0.597,0.132c1.125,0.132,2.329,0.232,1.602,0.405c-0.728,0.174-2.281,0.126-1.729,0.447
				c0.098,0.063-0.096,0.219-0.243,0.209c-0.509-0.018-1.658,0.064-1.658,0.178c0,0.114-0.224-0.018,0.133,0.133
				c0.35,0.159,2.473,1.723,1.2,1.663c-1.562-0.078-0.035,0.188,0.421,0.756c0.46,0.579,0.191,1.109,0.191,1.109
				s0.042,1.038,0.725,1.621c0.507,0.441,0.881,0.516,2.16,1.112c0.584-0.02,1.646,0.209,2.311,0.2
				c0.775-0.013,1.677,0.169,2.529,0.169c0.994,0,2.606,0.188,3.504,0.194c3.495,0.049,5.36,0,5.36,0.164
				c0,0.153-1.172,0.521-4.753,0.566c-0.852,0.012-3.172-0.219-4.111-0.219c-0.438,0-0.861,0-1.28,0
				c-0.555,0-0.754,0.31-0.266,0.438c2.315,0.6,5.958,0.523,7.758,1.065c0.165,0.046,0.935,0.78,3.464,0.921
				c2.627,0.141,4.757,0.096,4.757,0.209c0,0.1-1.431,0.178-3.394,0.205c-0.431,0.002-0.673,0.419-0.174,0.453
				c2.558,0.167,4.621,0.695,6.495,0.695c3.956,0,7.008-0.096,7.008,0.139s-3.209,0.422-7.17,0.422c-0.453,0-0.904,0-1.338-0.002
				c-0.523-0.008-0.875,0.258-0.523,0.403c0.748,0.305,0.591,0.875,2.156,1.257c1.563,0.388,1.516,0.361,2.16,0.343
				c0.642-0.019,1.638-0.29,0.751-0.442c0,0-0.087,0-0.579-0.092c-0.024,0-1.195-0.358-1.221-0.363
				c0.383-0.068,1.974,0.214,2.464,0.137c0.78,0.336,1.948,0.385,2.827,0.133c0.543-0.15,1.125-0.097,1.663,0.01
				c-1.544,0.066-2.63,0.223-2.63,0.411c0,0.217,1.477,0.395,3.427,0.431c0.261,0.009,1.363-0.269,1.663-0.328
				c0.569-0.115,1.107-0.223,1.554-0.365c0.324-0.104,0.506-0.369,0.361-0.375c-2.628-0.062-4.484,0.049-4.484-0.094
				c0-0.151,1.878-0.288,4.827-0.379c0.271-0.009,1.208-0.31,1.44-0.46c0.187-0.121,0.403-0.261,0.645-0.388
				c0.1-0.078,2.466-0.551,1.855-0.899c-0.653-0.381-0.792-0.553-0.31-0.623c0.407-0.059,1.909-0.228,1.882-0.437
				c-0.323,0-1.299-0.239-1.904-0.225c-0.464,0.021-7.976-0.133-8.454-0.133c-7.406,0-9.329,0.325-9.329,0.051
				c0-0.255,5.314-0.469,12.104-0.491c-0.065-0.023-0.104-0.051-0.104-0.072c0-0.155,1.333-0.287,2.979-0.287
				c1.648,0,2.98,0.132,2.98,0.287c0,0.021-0.041,0.054-0.117,0.078c0.595-0.024,1.229-0.092,1.636-0.266
				c0.108-0.05,0.209-0.113,0.3-0.201c-0.028-0.072-0.055-0.147-0.081-0.226c0.183-0.184,0.229-0.361,0.06-0.475
				c-0.423-0.288,0.901-0.38,1.752-0.192c0.849,0.192,0.708,0.192,0.284,0.335c-0.427,0.144-0.284,0.279,0.565,0.564
				c0.853,0.285,3.042,0.188,3.892,0.045c0.853-0.143,0.938-0.659,0.986-0.896c0.041-0.236,0.501-0.291,0.501-0.291
				c1.237-0.191,0.471-1.087-3.135-1.431c-0.198-0.014,2.068-0.101,2.518-0.216c1.287-0.349,1.537-0.716,2.061-0.923
				c0.967-0.39-1.057-0.096-1.122-0.533c-0.039-0.278,0.853-0.595,1.858-0.857C63.495,54.599,61.67,54.634,61.538,54.382z
				 M9.979,51.881c-0.871-0.066-1.476-0.002-1.476-0.082c0-0.07,0.709-0.135,1.584-0.135s2.98,0.07,2.98,0.15
				S11.191,51.973,9.979,51.881z M20.953,57.747c-0.871-0.068-1.478,0-1.478-0.078c0-0.08,0.71-0.141,1.587-0.141
				c0.873,0,2.978,0.078,2.978,0.15C24.04,57.757,22.165,57.843,20.953,57.747z M26.83,59.944c-1.552-0.117-2.623-0.006-2.623-0.146
				c0-0.137,1.26-0.242,2.817-0.242l5.294,0.273C32.318,59.966,28.985,60.107,26.83,59.944z M50.57,56.859
				c-3.574,0-9.905-0.21-9.905-0.292c0-0.08,2.9-0.143,6.483-0.143c3.579,0,6.273,0.004,6.479,0.143
				C53.951,56.791,54.156,56.859,50.57,56.859z"/>
		</g>
	</g>
	<g>
		<defs>
			<rect id="SVGID_1_" x="86.891" y="9.383" width="245" height="55"/>
		</defs>
		<clipPath id="SVGID_2_">
			<use xlink:href="#SVGID_1_"  overflow="visible"/>
		</clipPath>
		<g clip-path="url(#SVGID_2_)">
			<g>
				<defs>
					<rect id="SVGID_3_" x="96.229" y="-185.364" width="224.27" height="244.933"/>
				</defs>
				<clipPath id="SVGID_4_">
					<use xlink:href="#SVGID_3_"  overflow="visible"/>
				</clipPath>
			</g>
			<path fill="#227AB8" d="M214.218,20.669c0-3.657-2.618-6.389-6.208-6.389c-3.566,0-6.185,2.731-6.185,6.389
				s2.618,6.388,6.185,6.388C211.6,27.057,214.218,24.326,214.218,20.669L214.218,20.669z M200.132,20.669
				c0-4.628,3.521-7.855,7.878-7.855c4.379,0,7.901,3.228,7.901,7.855s-3.522,7.855-7.901,7.855
				C203.653,28.524,200.132,25.297,200.132,20.669L200.132,20.669z M186.404,12.994h1.625v13.905h7.247v1.444h-8.872V12.994
				L186.404,12.994z M175.611,24.371l-2.709-6.817c-0.294-0.722-0.587-1.829-0.587-1.829s-0.316,1.107-0.609,1.829l-2.709,6.817
				H175.611L175.611,24.371z M172.18,12.836h0.271l6.501,15.508h-1.715l-1.039-2.573h-7.766l-1.015,2.573h-1.603L172.18,12.836
				L172.18,12.836z M151.025,12.994h9.233v1.445h-7.607v7.2h6.908v1.49h-6.908v5.214h-1.625V12.994L151.025,12.994z M133.957,12.994
				h9.232v1.445h-7.607v7.2h6.907v1.49h-6.907v5.214h-1.625V12.994L133.957,12.994z M114.359,23.107V12.994h1.625v10
				c0,2.731,1.49,4.085,3.883,4.085c2.37,0,3.883-1.354,3.883-4.085v-10h1.625v10.113c0,3.589-2.393,5.417-5.508,5.417
				C116.729,28.524,114.359,26.696,114.359,23.107L114.359,23.107z M101.873,26.899c2.348,0,3.318-1.332,3.318-3.115
				c0-1.806-1.061-3.115-3.409-3.115h-3.927v6.23H101.873L101.873,26.899z M101.557,19.27c1.783,0,2.482-1.016,2.482-2.416
				c0-1.399-0.745-2.414-2.708-2.414h-3.476v4.83H101.557L101.557,19.27z M96.229,12.994h5.214c2.867,0,4.221,1.692,4.221,3.77
				c0,1.513-0.677,2.618-1.986,3.047c1.986,0.475,3.16,1.986,3.16,4.019c0,2.552-1.58,4.515-4.853,4.515h-5.756V12.994
				L96.229,12.994z"/>
			<path fill="#227AB8" d="M239.26,26.899c2.348,0,3.318-1.332,3.318-3.116c0-1.807-1.061-3.116-3.408-3.116h-3.93v6.232H239.26
				L239.26,26.899z M238.943,19.268c1.784,0,2.484-1.017,2.484-2.416c0-1.4-0.746-2.416-2.71-2.416h-3.478v4.832H238.943
				L238.943,19.268z M233.615,12.991h5.215c2.868,0,4.223,1.692,4.223,3.77c0,1.514-0.678,2.619-1.987,3.049
				c1.987,0.474,3.161,1.987,3.161,4.019c0,2.552-1.58,4.516-4.854,4.516h-5.758V12.991L233.615,12.991z"/>
			<path fill="#227AB8" d="M260.279,24.37l-2.709-6.818c-0.294-0.723-0.587-1.829-0.587-1.829s-0.316,1.106-0.61,1.829l-2.709,6.818
				H260.279L260.279,24.37z M256.848,12.832h0.271l6.503,15.512h-1.716l-1.039-2.573H253.1l-1.017,2.573h-1.603L256.848,12.832
				L256.848,12.832z"/>
			<path fill="#227AB8" d="M273.352,23.535l-5.803-10.544h1.828l4.178,7.631c0.339,0.587,0.655,1.559,0.655,1.559
				s0.338-0.949,0.654-1.559l4.154-7.631h1.693l-5.689,10.476v4.877h-1.671V23.535L273.352,23.535z"/>
			<g>
				<defs>
					<rect id="SVGID_5_" x="96.229" y="-185.364" width="224.27" height="244.933"/>
				</defs>
				<clipPath id="SVGID_6_">
					<use xlink:href="#SVGID_5_"  overflow="visible"/>
				</clipPath>
				<path clip-path="url(#SVGID_6_)" fill="#227AB8" d="M300.106,20.667c0-3.657-2.619-6.39-6.209-6.39
					c-3.567,0-6.187,2.732-6.187,6.39c0,3.658,2.619,6.391,6.187,6.391C297.487,27.058,300.106,24.325,300.106,20.667
					L300.106,20.667z M286.017,20.667c0-4.628,3.522-7.856,7.881-7.856c4.38,0,7.902,3.229,7.902,7.856
					c0,4.629-3.522,7.857-7.902,7.857C289.539,28.524,286.017,25.296,286.017,20.667L286.017,20.667z"/>
				<path clip-path="url(#SVGID_6_)" fill="#227AB8" d="M309.498,23.106V12.991h1.625v10.002c0,2.731,1.49,4.087,3.884,4.087
					c2.37,0,3.883-1.355,3.883-4.087V12.991h1.626v10.115c0,3.59-2.393,5.418-5.509,5.418
					C311.868,28.524,309.498,26.696,309.498,23.106L309.498,23.106z"/>
			</g>
			<path fill="#6A97CA" d="M120.32,54.15c3.455,0,4.742-1.807,4.742-4.335c0-2.529-1.287-4.335-4.742-4.335h-1.761v8.67H120.32
				L120.32,54.15z M116.934,44.035h3.477c4.2,0,6.345,2.326,6.345,5.78c0,3.387-2.145,5.758-6.345,5.758h-1.852v3.815h-1.625V44.035
				L116.934,44.035z"/>
			<path fill="#6A97CA" d="M141.792,55.415l-2.709-6.819c-0.293-0.723-0.587-1.828-0.587-1.828s-0.316,1.105-0.61,1.828
				l-2.709,6.819H141.792L141.792,55.415z M138.36,43.877h0.271l6.503,15.512h-1.716l-1.039-2.574h-7.767l-1.016,2.574h-1.603
				L138.36,43.877L138.36,43.877z"/>
			<path fill="#6A97CA" d="M155.948,53.902c3.477,0,4.764-1.784,4.764-4.2s-1.31-4.222-4.764-4.222h-1.739v8.422H155.948
				L155.948,53.902z M162.541,59.389h-1.919l-2.958-4.199c-0.519,0.09-1.083,0.135-1.625,0.135h-1.829v4.064h-1.625V44.035h3.455
				c4.199,0,6.367,2.349,6.367,5.667c0,2.304-1.083,4.11-3.206,4.968L162.541,59.389L162.541,59.389z"/>
			<polygon fill="#6A97CA" points="173.558,45.48 168.839,45.48 168.839,44.035 179.903,44.035 179.903,45.48 175.184,45.48 
				175.184,59.389 173.558,59.389 173.558,45.48 			"/>
			<path fill="#6A97CA" d="M189.724,48.709c-0.429-0.52-1.062-1.423-1.062-1.423s0.136,1.084,0.136,1.739v10.363h-1.536V43.877
				h0.271l9.167,10.838c0.429,0.52,1.062,1.422,1.062,1.422s-0.113-1.083-0.113-1.738V44.035h1.512v15.512h-0.271L189.724,48.709
				L189.724,48.709z"/>
			<polygon fill="#6A97CA" points="207.854,44.035 217.201,44.035 217.201,45.48 209.479,45.48 209.479,52.684 216.365,52.684 
				216.365,54.105 209.479,54.105 209.479,57.943 217.517,57.943 217.517,59.389 207.854,59.389 207.854,44.035 			"/>
			<path fill="#6A97CA" d="M228.828,53.902c3.477,0,4.764-1.784,4.764-4.2s-1.31-4.222-4.764-4.222h-1.739v8.422H228.828
				L228.828,53.902z M235.421,59.389h-1.919l-2.958-4.199c-0.52,0.09-1.084,0.135-1.626,0.135h-1.829v4.064h-1.625V44.035h3.454
				c4.2,0,6.367,2.349,6.367,5.667c0,2.304-1.084,4.11-3.206,4.968L235.421,59.389L235.421,59.389z"/>
			<path fill="#6A97CA" d="M241.99,56.453l1.354-0.722c0.723,1.287,1.784,2.393,3.951,2.393c1.784,0,3.185-0.993,3.185-2.619
				c0-1.558-0.972-2.349-2.891-3.206l-1.219-0.564c-2.19-0.993-3.388-2.055-3.388-4.199c0-2.213,1.739-3.681,4.042-3.681
				c2.055,0,3.342,0.948,4.154,2.303l-1.31,0.813c-0.587-0.949-1.399-1.671-2.845-1.671c-1.513,0-2.438,0.881-2.438,2.19
				c0,1.354,0.722,1.964,2.438,2.754l1.219,0.564c2.552,1.129,3.861,2.394,3.861,4.696c0,2.529-2.01,4.064-4.764,4.064
				C244.406,59.569,242.803,58.079,241.99,56.453L241.99,56.453z"/>
			<polygon fill="#6A97CA" points="259.939,44.035 261.564,44.035 261.564,52.684 269.784,52.684 269.784,44.035 271.409,44.035 
				271.409,59.389 269.784,59.389 269.784,54.174 261.564,54.174 261.564,59.389 259.939,59.389 259.939,44.035 			"/>
			<polygon fill="#6A97CA" points="280.191,44.035 281.84,44.035 281.84,59.389 280.191,59.389 280.191,44.035 			"/>
			<path fill="#6A97CA" d="M293.986,54.15c3.455,0,4.741-1.807,4.741-4.335c0-2.529-1.286-4.335-4.741-4.335h-1.762v8.67H293.986
				L293.986,54.15z M290.6,44.035h3.477c4.2,0,6.346,2.326,6.346,5.78c0,3.387-2.146,5.758-6.346,5.758h-1.852v3.815H290.6V44.035
				L290.6,44.035z"/>
		</g>
	</g>
</g>
</svg>
